<?xml version="1.0" encoding="UTF-8" standalone="no"?>
<!DOCTYPE svg PUBLIC "-//W3C//DTD SVG 1.1//EN" "http://www.w3.org/Graphics/SVG/1.1/DTD/svg11.dtd">
<svg xmlns="http://www.w3.org/2000/svg" version="1.1" viewBox="0.00 0.00 1204.00 311.00">
<g stroke-width="2.00" fill="none" stroke-linecap="butt">
<path stroke="#d9bcff" vector-effect="non-scaling-stroke" d="
  M 931.32 124.14
  L 929.26 124.18
  Q 928.88 124.19 928.88 124.56
  L 928.88 125.16
  Q 928.88 125.67 929.21 125.29
  Q 929.43 125.04 929.67 125.15
  A 0.39 0.39 0.0 0 1 929.66 125.85
  Q 929.51 125.92 929.38 125.84
  Q 928.94 125.58 928.84 126.08
  Q 928.68 126.85 929.32 127.07
  Q 929.88 127.27 929.88 127.88
  L 929.88 133.39"
/>
<path stroke="#d9bcff" vector-effect="non-scaling-stroke" d="
  M 918.25 157.14
  Q 918.84 157.67 917.20 157.74
  Q 916.19 157.79 917.13 158.17
  L 917.75 158.41
  Q 918.00 158.52 917.74 158.59
  Q 917.57 158.64 917.40 158.63
  A 0.40 0.39 84.8 0 0 917.01 159.11
  Q 917.13 159.67 916.93 160.24
  Q 916.72 160.85 917.36 160.88
  Q 917.82 160.89 918.06 161.30
  Q 918.28 161.67 917.88 161.84
  Q 917.75 161.90 917.61 161.89
  Q 916.98 161.83 916.95 162.47
  Q 916.87 164.38 918.80 166.50"
/>
<path stroke="#d9bcff" vector-effect="non-scaling-stroke" d="
  M 914.41 190.66
  Q 913.78 190.89 913.46 191.32
  Q 913.04 191.90 913.76 191.86
  Q 914.99 191.80 915.30 193.21
  Q 915.44 193.83 915.05 194.32
  Q 914.27 195.32 914.90 196.51
  A 1.67 1.58 -57.5 0 1 915.08 197.44
  Q 914.97 198.38 914.20 198.44
  Q 914.03 198.46 913.93 198.60
  Q 913.84 198.74 913.85 198.89
  Q 913.88 199.30 914.29 199.23
  Q 914.69 199.16 915.13 199.29
  Q 915.55 199.40 915.49 199.84
  Q 915.43 200.22 915.71 200.79"
/>
<path stroke="#8f50ee" stroke-opacity="0.573" vector-effect="non-scaling-stroke" d="
  M 336.4730 116.7002
  A 0.82 0.82 0.0 0 0 335.6502 115.8830
  L 325.9102 115.9170
  A 0.82 0.82 0.0 0 0 325.0931 116.7399
  L 325.1270 126.4398
  A 0.82 0.82 0.0 0 0 325.9498 127.2570
  L 335.6898 127.2230
  A 0.82 0.82 0.0 0 0 336.5069 126.4001
  L 336.4730 116.7002"
/>
<path stroke="#8f50ee" stroke-opacity="0.573" vector-effect="non-scaling-stroke" d="
  M 287.43 150.98
  Q 284.60 143.38 277.24 140.08
  C 265.24 134.69 250.28 137.51 238.89 143.69
  Q 238.07 144.12 238.57 144.90
  L 241.75 149.83
  Q 242.04 150.29 242.57 150.15
  Q 243.41 149.92 244.20 149.32"
/>
<path stroke="#8f50ee" stroke-opacity="0.573" vector-effect="non-scaling-stroke" d="
  M 250.79 162.81
  C 243.09 164.99 236.15 168.89 235.05 177.56
  C 233.73 187.89 240.52 194.50 250.18 195.90
  Q 268.53 198.55 279.73 186.08
  Q 280.14 185.61 280.14 186.23
  L 280.11 194.80
  Q 280.11 194.99 280.30 194.99
  L 288.25 195.01
  Q 288.49 195.01 288.48 194.77
  L 288.46 160.22"
/>
<path stroke="#a167f9" stroke-opacity="0.573" vector-effect="non-scaling-stroke" d="
  M 288.46 160.22
  L 288.62 158.61"
/>
<path stroke="#af7afa" stroke-opacity="0.659" vector-effect="non-scaling-stroke" d="
  M 288.62 158.61
  L 287.90 153.59"
/>
<path stroke="#a067f1" stroke-opacity="0.659" vector-effect="non-scaling-stroke" d="
  M 287.90 153.59
  Q 288.11 152.98 287.43 150.98"
/>
<path stroke="#974bf9" vector-effect="non-scaling-stroke" d="
  M 287.90 153.59
  Q 284.63 155.63 282.27 158.99
  Q 281.99 159.39 281.56 159.18
  L 280.13 158.47"
/>
<path stroke="#9247f3" stroke-opacity="0.573" vector-effect="non-scaling-stroke" d="
  M 280.13 158.47
  Q 280.39 151.76 275.43 148.08
  C 266.64 141.59 253.18 144.26 244.20 149.32"
/>
<path stroke="#974bf9" vector-effect="non-scaling-stroke" d="
  M 288.46 160.22
  Q 285.15 162.17 283.41 165.75
  Q 283.20 166.19 282.86 166.53
  L 280.09 169.24"
/>
<path stroke="#a167f9" stroke-opacity="0.573" vector-effect="non-scaling-stroke" d="
  M 280.09 169.24
  Q 279.42 168.80 278.41 168.82"
/>
<path stroke="#af7afa" stroke-opacity="0.659" vector-effect="non-scaling-stroke" d="
  M 278.41 168.82
  L 273.18 168.13"
/>
<path stroke="#974bf9" vector-effect="non-scaling-stroke" d="
  M 273.18 168.13
  L 276.49 164.38
  Q 276.83 164.00 277.32 163.87
  Q 278.86 163.47 278.92 162.04"
/>
<path stroke="#a35dfd" stroke-opacity="0.573" vector-effect="non-scaling-stroke" d="
  M 280.13 158.47
  Q 280.45 162.73 278.92 162.04"
/>
<path stroke="#9247f3" stroke-opacity="0.573" vector-effect="non-scaling-stroke" d="
  M 278.92 162.04
  Q 264.60 159.90 250.79 162.81"
/>
<path stroke="#a067f1" stroke-opacity="0.659" vector-effect="non-scaling-stroke" d="
  M 273.18 168.13
  L 271.76 168.29"
/>
<path stroke="#8f50ee" stroke-opacity="0.573" vector-effect="non-scaling-stroke" d="
  M 271.76 168.29
  C 264.06 167.98 246.54 167.63 243.49 177.32
  Q 242.34 180.97 245.09 184.65
  Q 248.45 189.16 254.80 188.94"
/>
<path stroke="#a067f1" stroke-opacity="0.659" vector-effect="non-scaling-stroke" d="
  M 254.80 188.94
  L 258.91 189.21"
/>
<path stroke="#8f50ee" stroke-opacity="0.573" vector-effect="non-scaling-stroke" d="
  M 258.91 189.21
  Q 268.45 189.01 275.34 182.84
  Q 279.11 179.47 279.97 175.99
  Q 280.40 174.25 280.09 169.24"
/>
<path stroke="#a167f9" stroke-opacity="0.573" vector-effect="non-scaling-stroke" d="
  M 326.80 170.75
  L 326.74 176.82"
/>
<path stroke="#8f50ee" stroke-opacity="0.573" vector-effect="non-scaling-stroke" d="
  M 326.74 176.82
  L 326.86 187.22
  A 0.75 0.75 0.0 0 1 326.10 187.98
  L 314.16 187.78
  Q 313.85 187.77 313.85 188.09
  L 313.98 194.74
  Q 313.98 195.00 314.24 195.00
  L 347.25 195.00
  Q 347.75 195.00 347.75 194.50
  L 347.76 188.46
  Q 347.76 187.91 347.21 187.91
  L 335.76 187.93
  A 0.68 0.68 0.0 0 1 335.08 187.25
  L 335.17 165.36"
/>
<path stroke="#a167f9" stroke-opacity="0.573" vector-effect="non-scaling-stroke" d="
  M 335.17 165.36
  Q 335.16 165.30 335.14 165.24"
/>
<path stroke="#8f50ee" stroke-opacity="0.573" vector-effect="non-scaling-stroke" d="
  M 335.14 165.24
  L 335.18 139.54
  A 0.84 0.84 0.0 0 0 334.34 138.70
  L 314.67 138.66
  Q 314.00 138.66 314.00 139.33
  L 314.00 144.96
  Q 314.00 145.67 314.71 145.67
  L 326.02 145.59
  Q 326.74 145.59 326.74 146.30
  L 326.80 170.75"
/>
<path stroke="#974bf9" vector-effect="non-scaling-stroke" d="
  M 335.14 165.24
  L 334.74 162.83
  Q 334.65 162.33 334.31 162.70
  L 326.80 170.75"
/>
<path stroke="#974bf9" vector-effect="non-scaling-stroke" d="
  M 335.17 165.36
  Q 334.37 166.97 334.30 168.95
  Q 334.26 169.83 333.74 169.15
  Q 333.64 169.02 333.47 169.03
  Q 332.82 169.07 332.89 169.72
  Q 332.92 170.03 332.85 170.35
  A 0.96 0.95 84.9 0 1 332.31 171.00
  Q 331.87 171.20 331.89 171.70
  Q 331.92 172.22 331.62 172.65
  C 330.49 174.26 329.00 176.79 326.74 176.82"
/>
<path stroke="#e6e2f9" stroke-opacity="0.573" vector-effect="non-scaling-stroke" d="
  M 288.34 215.94
  Q 289.25 216.15 290.31 216.04
  Q 291.32 215.93 290.55 215.28
  L 290.30 215.07
  Q 289.84 214.68 289.91 214.08
  Q 290.14 212.23 289.42 210.70
  Q 289.20 210.23 289.39 209.75
  Q 289.68 209.02 289.61 208.29
  Q 289.59 208.09 289.39 208.08
  L 289.10 208.08
  Q 288.55 208.06 288.75 208.57
  Q 289.15 209.61 288.50 210.45
  Q 288.30 210.71 288.46 210.99
  Q 289.49 212.89 288.80 215.02
  Q 288.76 215.15 288.63 215.20
  Q 288.50 215.25 288.37 215.27
  Q 286.40 215.51 288.34 215.94"
/>
<path stroke="#e6e2f9" stroke-opacity="0.573" vector-effect="non-scaling-stroke" d="
  M 296.35 210.80
  Q 295.09 210.22 293.70 210.37
  A 0.88 0.87 86.4 0 0 292.93 211.25
  L 293.01 215.76
  Q 293.02 216.00 293.26 216.01
  L 293.74 216.01
  Q 294.00 216.01 294.00 215.76
  L 294.08 211.55
  A 0.38 0.38 0.0 0 1 294.43 211.18
  L 294.69 211.15
  Q 295.58 211.05 295.55 211.94
  L 295.42 215.49
  Q 295.41 215.70 295.63 215.69
  L 296.01 215.68
  Q 296.29 215.68 296.24 215.40
  Q 295.87 213.46 296.61 211.42
  Q 296.77 210.99 296.35 210.80"
/>
<path stroke="#e6e2f9" stroke-opacity="0.573" vector-effect="non-scaling-stroke" d="
  M 297.90 211.91
  L 298.05 215.53
  A 0.20 0.19 88.4 0 0 298.24 215.72
  L 298.61 215.73
  Q 298.88 215.74 298.86 215.48
  L 298.57 211.11
  A 0.69 0.68 17.0 0 0 298.30 210.61
  Q 297.34 209.90 297.04 210.70
  Q 297.00 210.81 297.10 210.86
  Q 297.29 210.97 297.47 211.10
  Q 297.88 211.41 297.90 211.91"
/>
<path stroke="#e6e2f9" stroke-opacity="0.573" vector-effect="non-scaling-stroke" d="
  M 304.03 212.23
  A 0.58 0.58 0.0 0 1 303.34 212.89
  Q 300.07 212.18 299.90 214.71
  A 1.38 1.38 0.0 0 0 301.49 216.17
  L 304.58 215.69
  Q 305.04 215.62 305.02 215.16
  L 304.89 211.91
  Q 304.87 211.40 304.46 211.10
  Q 302.44 209.61 300.33 211.14
  Q 300.14 211.28 300.26 211.47
  L 300.42 211.73
  Q 300.46 211.79 300.51 211.74
  Q 301.46 210.87 303.17 211.14
  Q 303.86 211.25 303.97 211.94
  L 304.03 212.23"
/>
<path stroke="#e6e2f9" stroke-opacity="0.573" vector-effect="non-scaling-stroke" d="
  M 317.78 214.48
  C 319.32 211.74 316.07 209.01 314.00 210.89
  C 311.43 213.22 313.38 216.77 316.89 216.04
  Q 317.40 215.93 317.65 215.46
  Q 317.90 214.98 317.78 214.48"
/>
<path stroke="#e6e2f9" stroke-opacity="0.573" vector-effect="non-scaling-stroke" d="
  M 317.78 214.48
  Q 317.53 212.62 317.17 212.08
  Q 316.15 210.54 314.88 211.26
  Q 314.52 211.47 314.27 211.82
  Q 314.01 212.19 313.90 212.63
  Q 313.75 213.28 314.40 213.12
  Q 315.54 212.83 316.67 213.13
  Q 317.41 213.33 316.69 213.56
  Q 315.74 213.88 314.68 213.62
  Q 314.09 213.48 313.94 214.07
  Q 313.82 214.56 314.18 214.86
  Q 315.75 216.21 317.78 214.48"
/>
<path stroke="#e6e2f9" stroke-opacity="0.573" vector-effect="non-scaling-stroke" d="
  M 310.64 216.39
  C 310.09 217.85 308.34 217.87 307.24 216.99
  Q 306.87 216.70 306.81 217.17
  L 306.75 217.59
  Q 306.73 217.76 306.89 217.83
  C 309.31 218.88 311.78 218.10 311.54 215.16
  Q 311.36 212.99 311.63 211.18
  Q 311.72 210.57 311.11 210.64
  Q 310.40 210.72 309.74 210.52
  A 2.68 2.68 0.0 0 0 306.34 212.52
  C 305.99 214.19 306.91 216.25 308.87 215.88
  Q 309.51 215.76 310.19 215.75
  Q 310.89 215.74 310.64 216.39"
/>
<path stroke="#e6e2f9" stroke-opacity="0.573" vector-effect="non-scaling-stroke" d="
  M 311.70 222.02
  Q 311.77 221.14 311.32 220.37
  Q 310.95 219.73 310.80 220.46
  Q 310.69 221.01 310.77 221.59
  Q 310.87 222.35 310.11 222.35
  Q 309.95 222.35 309.81 222.44
  Q 309.25 222.79 309.90 222.95
  Q 310.07 223.00 310.25 223.05
  Q 310.81 223.21 310.80 223.80
  L 310.77 225.83
  Q 310.74 228.14 313.05 228.08
  Q 314.74 228.05 315.01 226.54
  A 0.29 0.28 -23.7 0 0 314.49 226.34
  Q 313.76 227.47 312.57 227.31
  Q 311.64 227.19 311.65 226.26
  L 311.68 223.78
  Q 311.68 223.24 312.22 223.24
  L 313.49 223.23
  Q 313.71 223.23 313.70 223.01
  L 313.68 222.66
  A 0.31 0.31 0.0 0 0 313.31 222.37
  L 312.30 222.56
  Q 311.64 222.69 311.70 222.02"
/>
<path stroke="#e6e2f9" stroke-opacity="0.573" vector-effect="non-scaling-stroke" d="
  M 318.68 221.53
  Q 318.63 221.67 318.69 221.79
  Q 318.85 222.08 319.02 221.79
  Q 319.45 221.02 319.12 220.34
  A 0.38 0.38 0.0 0 0 318.48 220.28
  Q 318.06 220.84 318.61 221.30
  Q 318.72 221.39 318.68 221.53"
/>
<path stroke="#e6e2f9" stroke-opacity="0.573" vector-effect="non-scaling-stroke" d="
  M 319.22 226.22
  L 319.25 224.41
  Q 319.27 223.49 318.67 222.80
  Q 317.78 221.78 317.57 222.39
  Q 317.45 222.73 317.64 223.03
  Q 319.23 225.43 317.51 227.45
  Q 317.08 227.96 317.75 227.98
  Q 319.08 228.00 320.25 227.60
  Q 320.74 227.42 320.28 227.17
  Q 320.15 227.10 320.01 227.09
  Q 319.21 227.02 319.22 226.22"
/>
<path stroke="#e6e2f9" stroke-opacity="0.573" vector-effect="non-scaling-stroke" d="
  M 274.55 228.51
  C 274.24 229.38 273.14 229.97 272.27 229.47
  Q 271.72 229.16 271.15 228.94
  Q 270.82 228.81 270.78 229.17
  L 270.74 229.56
  Q 270.72 229.73 270.88 229.81
  Q 273.96 231.19 275.22 228.91
  A 1.63 1.57 -35.3 0 0 275.41 227.92
  Q 275.06 225.48 275.48 223.22
  Q 275.57 222.73 275.07 222.71
  C 273.84 222.66 272.72 221.96 271.55 222.72
  C 268.77 224.55 270.29 228.77 273.87 227.78
  A 0.56 0.56 0.0 0 1 274.55 228.51"
/>
<path stroke="#e6e2f9" stroke-opacity="0.573" vector-effect="non-scaling-stroke" d="
  M 281.62 227.35
  L 282.23 224.01
  A 1.16 1.16 0.0 0 0 281.30 222.66
  L 280.11 222.44
  A 2.82 2.77 -79.7 0 0 276.88 224.72
  L 276.86 224.80
  A 2.82 2.77 -79.7 0 0 279.09 228.07
  L 280.28 228.29
  A 1.16 1.16 0.0 0 0 281.62 227.35"
/>
<path stroke="#e6e2f9" stroke-opacity="0.573" vector-effect="non-scaling-stroke" d="
  M 284.06 222.83
  Q 283.96 222.57 283.79 222.60
  Q 283.37 222.69 283.46 223.11
  Q 283.99 225.50 283.48 227.61
  A 0.24 0.24 0.0 0 0 283.76 227.90
  L 284.16 227.81
  Q 284.67 227.71 284.54 227.20
  Q 283.95 224.80 285.60 223.33
  A 1.30 1.30 0.0 0 1 287.76 224.31
  L 287.73 227.51
  Q 287.73 227.75 287.98 227.75
  L 288.34 227.75
  Q 288.60 227.75 288.59 227.50
  L 288.44 223.91
  A 1.33 1.31 -67.2 0 0 288.11 223.09
  Q 286.76 221.52 284.63 223.01
  A 0.38 0.38 0.0 0 1 284.06 222.83"
/>
<path stroke="#e6e2f9" stroke-opacity="0.573" vector-effect="non-scaling-stroke" d="
  M 291.90 225.65
  Q 293.36 225.60 294.74 225.45
  Q 295.32 225.38 295.30 224.80
  C 295.16 221.91 291.13 221.42 290.19 224.02
  C 289.03 227.22 292.04 229.21 294.75 227.60
  Q 294.96 227.48 294.83 227.28
  L 294.69 227.06
  Q 294.48 226.72 294.14 226.95
  Q 292.54 228.04 291.41 226.92
  Q 290.19 225.71 291.90 225.65"
/>
<path stroke="#e6e2f9" stroke-opacity="0.573" vector-effect="non-scaling-stroke" d="
  M 296.92 227.19
  Q 296.77 227.23 296.69 227.39
  Q 296.47 227.82 296.95 227.84
  L 299.16 227.96
  Q 299.93 228.01 299.50 227.37
  Q 299.36 227.16 299.13 227.08
  Q 298.61 226.92 298.53 226.39
  Q 298.09 223.72 300.56 223.08
  Q 300.72 223.04 300.88 223.06
  Q 301.04 223.08 301.20 223.14
  Q 301.96 223.43 301.56 222.72
  Q 301.45 222.51 301.22 222.41
  Q 300.76 222.22 300.32 222.44
  Q 299.01 223.07 297.50 222.50
  Q 297.06 222.32 296.67 222.57
  Q 296.01 222.99 296.78 223.12
  Q 297.24 223.20 297.60 223.46
  A 0.62 0.60 28.4 0 1 297.81 224.14
  Q 297.45 225.17 297.64 226.13
  Q 297.81 226.99 296.92 227.19"
/>
<path stroke="#e6e2f9" stroke-opacity="0.573" vector-effect="non-scaling-stroke" d="
  M 306.68 224.97
  Q 305.01 224.45 303.65 225.34
  A 1.43 1.43 0.0 0 0 303.82 227.82
  Q 305.39 228.56 307.66 227.72
  Q 308.12 227.56 308.14 227.06
  Q 308.19 225.75 308.11 224.48
  C 307.96 222.05 304.93 221.68 303.49 223.14
  Q 302.86 223.77 303.69 223.46
  Q 304.72 223.08 305.71 222.98
  Q 306.33 222.91 306.78 223.37
  Q 307.33 223.92 307.19 224.67
  A 0.40 0.40 0.0 0 1 306.68 224.97"
/>
<path stroke="#e6e2f9" stroke-opacity="0.573" vector-effect="non-scaling-stroke" d="
  M 328.31 225.30
  A 2.91 2.91 0.0 0 0 325.40 222.39
  A 2.91 2.91 0.0 0 0 322.49 225.30
  A 2.91 2.91 0.0 0 0 325.40 228.21
  A 2.91 2.91 0.0 0 0 328.31 225.30"
/>
<path stroke="#e6e2f9" stroke-opacity="0.573" vector-effect="non-scaling-stroke" d="
  M 330.41 224.71
  A 1.54 1.54 0.0 0 1 333.37 224.19
  Q 333.86 225.38 333.41 227.61
  Q 333.40 227.69 333.48 227.69
  L 333.92 227.74
  Q 334.28 227.78 334.33 227.42
  Q 334.71 224.81 334.01 222.71
  A 0.83 0.82 -15.1 0 0 333.06 222.17
  L 330.03 222.79
  Q 329.48 222.90 329.44 223.46
  L 329.15 227.46
  Q 329.13 227.81 329.46 227.84
  L 329.79 227.88
  A 0.45 0.44 4.8 0 0 330.29 227.46
  L 330.41 224.71"
/>
<path stroke="#e6e2f9" stroke-opacity="0.573" vector-effect="non-scaling-stroke" d="
  M 304.05 214.71
  L 303.85 213.76
  Q 303.74 213.28 303.25 213.26
  Q 302.12 213.23 301.16 213.75
  Q 300.72 213.99 300.65 214.48
  Q 300.55 215.20 301.25 215.28
  Q 302.29 215.41 303.57 215.34
  Q 304.18 215.31 304.05 214.71"
/>
<path stroke="#e6e2f9" stroke-opacity="0.573" vector-effect="non-scaling-stroke" d="
  M 310.52 214.45
  L 310.65 211.95
  A 0.75 0.75 0.0 0 0 309.94 211.16
  L 309.16 211.13
  A 2.03 1.91 2.9 0 0 307.04 212.93
  L 307.03 213.11
  A 2.03 1.91 2.9 0 0 308.96 215.12
  L 309.74 215.16
  A 0.75 0.75 0.0 0 0 310.52 214.45"
/>
<path stroke="#e6e2f9" stroke-opacity="0.573" vector-effect="non-scaling-stroke" d="
  M 271.62 226.89
  L 273.69 227.14
  A 0.75 0.75 0.0 0 0 274.52 226.48
  L 274.66 225.31
  A 2.09 1.73 -83.3 0 0 273.18 223.03
  L 273.06 223.02
  A 2.09 1.73 -83.3 0 0 271.10 224.89
  L 270.97 226.06
  A 0.75 0.75 0.0 0 0 271.62 226.89"
/>
<path stroke="#e6e2f9" stroke-opacity="0.573" vector-effect="non-scaling-stroke" d="
  M 278.21 225.07
  L 280.92 224.91
  A 0.29 0.29 0.0 0 0 281.20 224.60
  L 281.19 224.42
  A 1.51 1.43 -3.4 0 0 279.59 223.08
  L 279.31 223.10
  A 1.51 1.43 -3.4 0 0 277.89 224.62
  L 277.90 224.80
  A 0.29 0.29 0.0 0 0 278.21 225.07"
/>
<path stroke="#e6e2f9" stroke-opacity="0.573" vector-effect="non-scaling-stroke" d="
  M 280.71 225.66
  Q 279.45 225.88 278.40 225.72
  Q 277.69 225.61 277.97 226.28
  L 278.07 226.52
  Q 278.36 227.22 279.12 227.30
  Q 280.44 227.44 281.39 226.54
  Q 281.65 226.28 281.62 225.92
  Q 281.58 225.52 281.20 225.40
  Q 281.12 225.38 281.06 225.44
  Q 281.03 225.47 280.99 225.51
  Q 280.88 225.63 280.71 225.66"
/>
<path stroke="#e6e2f9" stroke-opacity="0.573" vector-effect="non-scaling-stroke" d="
  M 291.24 225.23
  L 294.13 224.92
  A 0.26 0.26 0.0 0 0 294.36 224.63
  L 294.34 224.49
  A 1.58 1.57 -6.1 0 0 292.60 223.09
  L 292.35 223.12
  A 1.58 1.57 -6.1 0 0 290.94 224.85
  L 290.96 225.00
  A 0.26 0.26 0.0 0 0 291.24 225.23"
/>
<path stroke="#e6e2f9" stroke-opacity="0.573" vector-effect="non-scaling-stroke" d="
  M 307.2391 226.0292
  A 1.70 1.05 -12.6 0 0 305.3509 225.3753
  A 1.70 1.05 -12.6 0 0 303.9209 226.7708
  A 1.70 1.05 -12.6 0 0 305.8091 227.4247
  A 1.70 1.05 -12.6 0 0 307.2391 226.0292"
/>
<path stroke="#e8d9fd" stroke-opacity="0.573" vector-effect="non-scaling-stroke" d="
  M 327.45 225.22
  A 2.10 2.10 0.0 0 0 325.35 223.12
  A 2.10 2.10 0.0 0 0 323.25 225.22
  A 2.10 2.10 0.0 0 0 325.35 227.32
  A 2.10 2.10 0.0 0 0 327.45 225.22"
/>
</g>
<path fill="#a0cccf" fill-opacity="0.145" d="
  M 181.04 49.07
  L 411.10 49.07
  A 0.80 0.80 0.0 0 1 411.90 49.87
  L 411.91 261.04
  A 0.80 0.80 0.0 0 1 411.11 261.84
  L 181.03 261.87
  A 0.80 0.80 0.0 0 1 180.23 261.07
  L 180.24 49.87
  A 0.80 0.80 0.0 0 1 181.04 49.07
  Z
  M 335.95 107.46
  Q 336.92 106.99 337.60 106.30
  Q 350.52 93.32 363.24 79.93
  Q 363.83 79.31 364.00 78.51
  Q 364.26 77.24 363.34 78.15
  Q 348.84 92.59 336.71 105.42
  Q 335.67 106.52 334.79 107.79
  Q 334.45 108.28 335.04 108.27
  Q 335.40 108.27 335.49 107.98
  Q 335.61 107.62 335.95 107.46
  Z
  M 333.43 109.59
  Q 333.72 109.61 333.98 109.48
  Q 334.19 109.37 334.19 109.13
  Q 334.20 108.99 334.12 108.88
  Q 333.80 108.40 333.36 108.77
  Q 332.73 109.29 332.54 110.07
  Q 332.44 110.49 332.85 110.37
  Q 333.03 110.32 333.21 110.25
  Q 333.41 110.17 333.38 109.96
  Q 333.37 109.90 333.32 109.86
  Q 332.88 109.54 333.43 109.59
  Z
  M 336.4730 116.7002
  A 0.82 0.82 0.0 0 0 335.6502 115.8830
  L 325.9102 115.9170
  A 0.82 0.82 0.0 0 0 325.0931 116.7399
  L 325.1270 126.4398
  A 0.82 0.82 0.0 0 0 325.9498 127.2570
  L 335.6898 127.2230
  A 0.82 0.82 0.0 0 0 336.5069 126.4001
  L 336.4730 116.7002
  Z
  M 287.43 150.98
  Q 284.60 143.38 277.24 140.08
  C 265.24 134.69 250.28 137.51 238.89 143.69
  Q 238.07 144.12 238.57 144.90
  L 241.75 149.83
  Q 242.04 150.29 242.57 150.15
  Q 243.41 149.92 244.20 149.32
  Q 244.05 150.09 244.79 150.32
  A 0.74 0.73 4.7 0 1 245.29 150.90
  Q 245.36 151.32 245.00 151.58
  Q 244.41 152.02 245.12 152.20
  Q 246.05 152.44 246.61 151.70
  Q 246.85 151.38 247.18 151.19
  Q 247.77 150.83 248.36 151.88
  Q 248.90 152.85 248.55 153.91
  L 248.13 155.13
  A 0.30 0.30 0.0 0 0 248.35 155.52
  Q 248.60 155.57 248.51 155.80
  Q 248.27 156.41 248.95 156.38
  Q 249.31 156.37 249.40 156.72
  Q 249.48 157.05 249.31 157.35
  Q 249.03 157.80 249.28 158.23
  A 0.74 0.73 53.2 0 1 249.16 159.11
  L 248.82 159.47
  A 0.42 0.40 60.0 0 0 248.72 159.88
  Q 248.82 160.23 249.08 160.18
  Q 249.64 160.06 249.27 160.50
  Q 249.04 160.77 249.18 161.09
  A 0.42 0.42 0.0 0 0 249.82 161.25
  Q 250.46 160.74 251.17 161.07
  Q 251.71 161.31 251.49 161.87
  Q 251.30 162.35 250.79 162.81
  C 243.09 164.99 236.15 168.89 235.05 177.56
  C 233.73 187.89 240.52 194.50 250.18 195.90
  Q 268.53 198.55 279.73 186.08
  Q 280.14 185.61 280.14 186.23
  L 280.11 194.80
  Q 280.11 194.99 280.30 194.99
  L 288.25 195.01
  Q 288.49 195.01 288.48 194.77
  L 288.46 160.22
  L 288.62 158.61
  Q 292.25 156.15 296.75 151.38
  Q 302.56 145.23 305.76 141.45
  Q 306.94 140.06 307.46 138.74
  Q 308.17 136.94 309.13 135.32
  Q 309.59 134.55 308.69 134.57
  Q 308.43 134.57 308.28 134.36
  Q 307.34 133.08 306.29 134.28
  Q 301.66 139.62 296.82 144.23
  C 294.75 146.21 293.29 148.32 291.61 150.63
  Q 289.77 153.16 287.43 150.98
  Z
  M 326.80 170.75
  L 326.74 176.82
  L 326.86 187.22
  A 0.75 0.75 0.0 0 1 326.10 187.98
  L 314.16 187.78
  Q 313.85 187.77 313.85 188.09
  L 313.98 194.74
  Q 313.98 195.00 314.24 195.00
  L 347.25 195.00
  Q 347.75 195.00 347.75 194.50
  L 347.76 188.46
  Q 347.76 187.91 347.21 187.91
  L 335.76 187.93
  A 0.68 0.68 0.0 0 1 335.08 187.25
  L 335.17 165.36
  Q 335.16 165.30 335.14 165.24
  L 335.18 139.54
  A 0.84 0.84 0.0 0 0 334.34 138.70
  L 314.67 138.66
  Q 314.00 138.66 314.00 139.33
  L 314.00 144.96
  Q 314.00 145.67 314.71 145.67
  L 326.02 145.59
  Q 326.74 145.59 326.74 146.30
  L 326.80 170.75
  Z
  M 355.21 143.70
  Q 355.16 143.52 355.56 143.31
  Q 357.18 142.60 357.16 141.38
  Q 360.05 138.50 357.78 138.70
  L 351.98 144.37
  Q 351.62 144.72 351.54 145.22
  Q 351.47 145.74 351.05 146.06
  Q 350.07 146.82 350.64 147.95
  Q 350.94 148.56 351.39 148.05
  L 355.21 143.70
  Z
  M 305.70 201.36
  Q 306.16 201.10 306.24 200.56
  Q 306.30 200.08 306.66 199.76
  L 309.25 197.47
  Q 309.66 197.10 309.68 196.55
  Q 309.70 195.88 310.22 195.46
  Q 310.69 195.07 310.84 194.47
  Q 311.13 193.32 312.23 193.07
  Q 312.53 193.01 312.60 192.71
  Q 312.78 191.96 312.37 191.36
  Q 312.28 191.22 312.13 191.16
  Q 311.98 191.11 311.83 191.13
  Q 311.14 191.23 311.37 190.58
  Q 311.42 190.43 311.13 190.37
  Q 310.76 190.28 310.54 190.59
  Q 310.07 191.24 309.21 191.40
  Q 308.64 191.51 308.23 191.91
  Q 304.25 195.75 300.92 200.34
  C 299.56 202.22 297.85 203.82 296.36 205.63
  Q 296.07 205.98 296.14 206.43
  Q 296.21 206.91 295.79 207.15
  Q 294.56 207.88 295.19 208.88
  A 2.50 2.05 -47.3 0 0 299.01 208.35
  Q 300.68 205.70 303.50 204.29
  Q 303.55 204.26 303.57 204.21
  Q 304.15 202.90 305.03 201.90
  Q 305.32 201.57 305.70 201.36
  Z
  M 234.47 211.45
  Q 234.55 211.56 234.72 211.57
  Q 234.86 211.58 234.96 211.48
  L 238.29 208.18
  Q 238.52 207.95 238.37 207.66
  L 238.05 207.03
  Q 237.90 206.73 237.66 206.98
  L 233.40 211.52
  Q 233.02 211.92 233.48 212.23
  Q 233.74 212.42 234.02 212.30
  Q 234.53 212.07 234.38 211.50
  Q 234.31 211.24 234.47 211.45
  Z
  M 288.34 215.94
  Q 289.25 216.15 290.31 216.04
  Q 291.32 215.93 290.55 215.28
  L 290.30 215.07
  Q 289.84 214.68 289.91 214.08
  Q 290.14 212.23 289.42 210.70
  Q 289.20 210.23 289.39 209.75
  Q 289.68 209.02 289.61 208.29
  Q 289.59 208.09 289.39 208.08
  L 289.10 208.08
  Q 288.55 208.06 288.75 208.57
  Q 289.15 209.61 288.50 210.45
  Q 288.30 210.71 288.46 210.99
  Q 289.49 212.89 288.80 215.02
  Q 288.76 215.15 288.63 215.20
  Q 288.50 215.25 288.37 215.27
  Q 286.40 215.51 288.34 215.94
  Z
  M 296.35 210.80
  Q 295.09 210.22 293.70 210.37
  A 0.88 0.87 86.4 0 0 292.93 211.25
  L 293.01 215.76
  Q 293.02 216.00 293.26 216.01
  L 293.74 216.01
  Q 294.00 216.01 294.00 215.76
  L 294.08 211.55
  A 0.38 0.38 0.0 0 1 294.43 211.18
  L 294.69 211.15
  Q 295.58 211.05 295.55 211.94
  L 295.42 215.49
  Q 295.41 215.70 295.63 215.69
  L 296.01 215.68
  Q 296.29 215.68 296.24 215.40
  Q 295.87 213.46 296.61 211.42
  Q 296.77 210.99 296.35 210.80
  Z
  M 297.90 211.91
  L 298.05 215.53
  A 0.20 0.19 88.4 0 0 298.24 215.72
  L 298.61 215.73
  Q 298.88 215.74 298.86 215.48
  L 298.57 211.11
  A 0.69 0.68 17.0 0 0 298.30 210.61
  Q 297.34 209.90 297.04 210.70
  Q 297.00 210.81 297.10 210.86
  Q 297.29 210.97 297.47 211.10
  Q 297.88 211.41 297.90 211.91
  Z
  M 304.03 212.23
  A 0.58 0.58 0.0 0 1 303.34 212.89
  Q 300.07 212.18 299.90 214.71
  A 1.38 1.38 0.0 0 0 301.49 216.17
  L 304.58 215.69
  Q 305.04 215.62 305.02 215.16
  L 304.89 211.91
  Q 304.87 211.40 304.46 211.10
  Q 302.44 209.61 300.33 211.14
  Q 300.14 211.28 300.26 211.47
  L 300.42 211.73
  Q 300.46 211.79 300.51 211.74
  Q 301.46 210.87 303.17 211.14
  Q 303.86 211.25 303.97 211.94
  L 304.03 212.23
  Z
  M 317.78 214.48
  C 319.32 211.74 316.07 209.01 314.00 210.89
  C 311.43 213.22 313.38 216.77 316.89 216.04
  Q 317.40 215.93 317.65 215.46
  Q 317.90 214.98 317.78 214.48
  Z
  M 310.64 216.39
  C 310.09 217.85 308.34 217.87 307.24 216.99
  Q 306.87 216.70 306.81 217.17
  L 306.75 217.59
  Q 306.73 217.76 306.89 217.83
  C 309.31 218.88 311.78 218.10 311.54 215.16
  Q 311.36 212.99 311.63 211.18
  Q 311.72 210.57 311.11 210.64
  Q 310.40 210.72 309.74 210.52
  A 2.68 2.68 0.0 0 0 306.34 212.52
  C 305.99 214.19 306.91 216.25 308.87 215.88
  Q 309.51 215.76 310.19 215.75
  Q 310.89 215.74 310.64 216.39
  Z
  M 341.13 210.34
  L 336.16 217.14
  A 0.10 0.10 0.0 0 0 336.18 217.28
  L 336.25 217.33
  A 4.09 1.44 -53.8 0 0 339.82 214.88
  L 340.08 214.52
  A 4.09 1.44 -53.8 0 0 341.34 210.37
  L 341.27 210.32
  A 0.10 0.10 0.0 0 0 341.13 210.34
  Z
  M 311.70 222.02
  Q 311.77 221.14 311.32 220.37
  Q 310.95 219.73 310.80 220.46
  Q 310.69 221.01 310.77 221.59
  Q 310.87 222.35 310.11 222.35
  Q 309.95 222.35 309.81 222.44
  Q 309.25 222.79 309.90 222.95
  Q 310.07 223.00 310.25 223.05
  Q 310.81 223.21 310.80 223.80
  L 310.77 225.83
  Q 310.74 228.14 313.05 228.08
  Q 314.74 228.05 315.01 226.54
  A 0.29 0.28 -23.7 0 0 314.49 226.34
  Q 313.76 227.47 312.57 227.31
  Q 311.64 227.19 311.65 226.26
  L 311.68 223.78
  Q 311.68 223.24 312.22 223.24
  L 313.49 223.23
  Q 313.71 223.23 313.70 223.01
  L 313.68 222.66
  A 0.31 0.31 0.0 0 0 313.31 222.37
  L 312.30 222.56
  Q 311.64 222.69 311.70 222.02
  Z
  M 318.68 221.53
  Q 318.63 221.67 318.69 221.79
  Q 318.85 222.08 319.02 221.79
  Q 319.45 221.02 319.12 220.34
  A 0.38 0.38 0.0 0 0 318.48 220.28
  Q 318.06 220.84 318.61 221.30
  Q 318.72 221.39 318.68 221.53
  Z
  M 319.22 226.22
  L 319.25 224.41
  Q 319.27 223.49 318.67 222.80
  Q 317.78 221.78 317.57 222.39
  Q 317.45 222.73 317.64 223.03
  Q 319.23 225.43 317.51 227.45
  Q 317.08 227.96 317.75 227.98
  Q 319.08 228.00 320.25 227.60
  Q 320.74 227.42 320.28 227.17
  Q 320.15 227.10 320.01 227.09
  Q 319.21 227.02 319.22 226.22
  Z
  M 274.55 228.51
  C 274.24 229.38 273.14 229.97 272.27 229.47
  Q 271.72 229.16 271.15 228.94
  Q 270.82 228.81 270.78 229.17
  L 270.74 229.56
  Q 270.72 229.73 270.88 229.81
  Q 273.96 231.19 275.22 228.91
  A 1.63 1.57 -35.3 0 0 275.41 227.92
  Q 275.06 225.48 275.48 223.22
  Q 275.57 222.73 275.07 222.71
  C 273.84 222.66 272.72 221.96 271.55 222.72
  C 268.77 224.55 270.29 228.77 273.87 227.78
  A 0.56 0.56 0.0 0 1 274.55 228.51
  Z
  M 281.62 227.35
  L 282.23 224.01
  A 1.16 1.16 0.0 0 0 281.30 222.66
  L 280.11 222.44
  A 2.82 2.77 -79.7 0 0 276.88 224.72
  L 276.86 224.80
  A 2.82 2.77 -79.7 0 0 279.09 228.07
  L 280.28 228.29
  A 1.16 1.16 0.0 0 0 281.62 227.35
  Z
  M 284.06 222.83
  Q 283.96 222.57 283.79 222.60
  Q 283.37 222.69 283.46 223.11
  Q 283.99 225.50 283.48 227.61
  A 0.24 0.24 0.0 0 0 283.76 227.90
  L 284.16 227.81
  Q 284.67 227.71 284.54 227.20
  Q 283.95 224.80 285.60 223.33
  A 1.30 1.30 0.0 0 1 287.76 224.31
  L 287.73 227.51
  Q 287.73 227.75 287.98 227.75
  L 288.34 227.75
  Q 288.60 227.75 288.59 227.50
  L 288.44 223.91
  A 1.33 1.31 -67.2 0 0 288.11 223.09
  Q 286.76 221.52 284.63 223.01
  A 0.38 0.38 0.0 0 1 284.06 222.83
  Z
  M 291.90 225.65
  Q 293.36 225.60 294.74 225.45
  Q 295.32 225.38 295.30 224.80
  C 295.16 221.91 291.13 221.42 290.19 224.02
  C 289.03 227.22 292.04 229.21 294.75 227.60
  Q 294.96 227.48 294.83 227.28
  L 294.69 227.06
  Q 294.48 226.72 294.14 226.95
  Q 292.54 228.04 291.41 226.92
  Q 290.19 225.71 291.90 225.65
  Z
  M 296.92 227.19
  Q 296.77 227.23 296.69 227.39
  Q 296.47 227.82 296.95 227.84
  L 299.16 227.96
  Q 299.93 228.01 299.50 227.37
  Q 299.36 227.16 299.13 227.08
  Q 298.61 226.92 298.53 226.39
  Q 298.09 223.72 300.56 223.08
  Q 300.72 223.04 300.88 223.06
  Q 301.04 223.08 301.20 223.14
  Q 301.96 223.43 301.56 222.72
  Q 301.45 222.51 301.22 222.41
  Q 300.76 222.22 300.32 222.44
  Q 299.01 223.07 297.50 222.50
  Q 297.06 222.32 296.67 222.57
  Q 296.01 222.99 296.78 223.12
  Q 297.24 223.20 297.60 223.46
  A 0.62 0.60 28.4 0 1 297.81 224.14
  Q 297.45 225.17 297.64 226.13
  Q 297.81 226.99 296.92 227.19
  Z
  M 306.68 224.97
  Q 305.01 224.45 303.65 225.34
  A 1.43 1.43 0.0 0 0 303.82 227.82
  Q 305.39 228.56 307.66 227.72
  Q 308.12 227.56 308.14 227.06
  Q 308.19 225.75 308.11 224.48
  C 307.96 222.05 304.93 221.68 303.49 223.14
  Q 302.86 223.77 303.69 223.46
  Q 304.72 223.08 305.71 222.98
  Q 306.33 222.91 306.78 223.37
  Q 307.33 223.92 307.19 224.67
  A 0.40 0.40 0.0 0 1 306.68 224.97
  Z
  M 328.31 225.30
  A 2.91 2.91 0.0 0 0 325.40 222.39
  A 2.91 2.91 0.0 0 0 322.49 225.30
  A 2.91 2.91 0.0 0 0 325.40 228.21
  A 2.91 2.91 0.0 0 0 328.31 225.30
  Z
  M 330.41 224.71
  A 1.54 1.54 0.0 0 1 333.37 224.19
  Q 333.86 225.38 333.41 227.61
  Q 333.40 227.69 333.48 227.69
  L 333.92 227.74
  Q 334.28 227.78 334.33 227.42
  Q 334.71 224.81 334.01 222.71
  A 0.83 0.82 -15.1 0 0 333.06 222.17
  L 330.03 222.79
  Q 329.48 222.90 329.44 223.46
  L 329.15 227.46
  Q 329.13 227.81 329.46 227.84
  L 329.79 227.88
  A 0.45 0.44 4.8 0 0 330.29 227.46
  L 330.41 224.71
  Z"
/>
<path fill="#cfa8bc" fill-opacity="0.843" d="
  M 335.49 107.98
  Q 335.40 108.27 335.04 108.27
  Q 334.45 108.28 334.79 107.79
  Q 335.67 106.52 336.71 105.42
  Q 348.84 92.59 363.34 78.15
  Q 364.26 77.24 364.00 78.51
  Q 363.83 79.31 363.24 79.93
  Q 350.52 93.32 337.60 106.30
  Q 336.92 106.99 335.95 107.46
  Q 335.61 107.62 335.49 107.98
  Z"
/>
<rect fill="#7b1ef1" x="-7.45" y="-7.49" transform="translate(565.81,103.00) rotate(0.1)" width="14.90" height="14.98" rx="0.41"/>
<path fill="#cfa8bc" fill-opacity="0.843" d="
  M 333.32 109.86
  Q 333.37 109.90 333.38 109.96
  Q 333.41 110.17 333.21 110.25
  Q 333.03 110.32 332.85 110.37
  Q 332.44 110.49 332.54 110.07
  Q 332.73 109.29 333.36 108.77
  Q 333.80 108.40 334.12 108.88
  Q 334.20 108.99 334.19 109.13
  Q 334.19 109.37 333.98 109.48
  Q 333.72 109.61 333.43 109.59
  Q 332.88 109.54 333.32 109.86
  Z"
/>
<rect fill="#8d3ef3" x="-5.69" y="-5.67" transform="translate(330.80,121.57) rotate(-0.2)" width="11.38" height="11.34" rx="0.82"/>
<path fill="#7b1ef1" d="
  M 498.12 188.28
  Q 488.06 199.53 472.92 201.45
  Q 461.36 202.92 451.44 198.90
  Q 439.59 194.11 438.89 181.18
  C 437.35 152.76 479.88 153.96 497.93 156.45
  Q 498.65 156.55 498.68 155.83
  C 498.98 147.82 498.23 141.65 490.80 136.92
  C 478.55 129.13 460.38 133.71 448.65 141.01
  Q 448.41 141.15 448.27 140.91
  L 443.56 133.17
  Q 443.38 132.87 443.68 132.69
  C 458.82 124.03 477.84 120.27 493.85 126.95
  C 503.76 131.08 509.67 139.52 509.71 150.39
  Q 509.78 171.78 509.74 199.32
  Q 509.74 200.00 509.06 200.00
  L 499.19 200.00
  Q 498.62 200.00 498.62 199.44
  L 498.63 188.47
  Q 498.63 187.71 498.12 188.28
  Z
  M 454.63 170.51
  C 448.62 174.73 448.22 182.71 453.49 187.71
  Q 457.77 191.76 465.25 192.35
  C 477.86 193.34 491.66 188.51 497.54 176.95
  C 499.24 173.62 498.52 169.76 498.68 166.17
  A 0.69 0.69 0.0 0 0 498.08 165.46
  Q 484.57 163.83 470.47 165.14
  Q 461.03 166.02 454.63 170.51
  Z"
/>
<path fill="#a158ff" d="
  M 629.24 135.33
  A 0.14 0.14 0.0 0 0 629.52 135.35
  C 631.81 125.82 640.33 121.37 649.54 124.48
  Q 655.73 126.57 658.48 133.64
  Q 658.87 134.63 659.36 133.68
  Q 666.14 120.68 680.72 124.43
  C 689.17 126.61 692.54 135.46 692.57 143.25
  Q 692.68 170.62 692.62 199.61
  Q 692.62 200.00 692.23 200.00
  L 682.27 200.00
  Q 681.74 200.00 681.74 199.46
  Q 681.77 173.58 681.73 145.26
  C 681.73 140.76 680.03 134.12 674.96 133.12
  C 662.96 130.74 661.00 147.12 660.94 154.99
  Q 660.80 177.80 660.90 199.35
  Q 660.90 200.00 660.26 200.00
  L 650.51 200.00
  Q 649.84 200.00 649.84 199.33
  Q 649.94 172.60 649.84 145.47
  C 649.82 140.97 648.21 134.24 643.20 133.17
  C 630.61 130.49 629.08 147.76 629.05 155.84
  Q 628.94 178.96 629.01 199.24
  A 0.76 0.76 0.0 0 1 628.25 200.00
  L 618.50 200.00
  Q 618.00 200.00 618.00 199.50
  L 618.00 126.06
  Q 618.00 125.38 618.68 125.38
  L 628.42 125.38
  Q 629.09 125.38 629.05 126.04
  Q 628.80 130.83 629.24 135.33
  Z"
/>
<path fill="#b276ff" d="
  M 766.74 188.26
  Q 752.92 203.26 732.04 201.66
  Q 722.58 200.94 716.12 196.89
  C 708.53 192.13 706.19 183.21 707.95 174.70
  C 710.34 163.20 723.15 158.10 733.42 156.47
  Q 749.15 153.97 766.65 156.47
  Q 767.17 156.54 767.20 156.02
  Q 767.48 151.30 766.87 147.48
  C 765.33 137.88 754.69 133.18 745.73 132.95
  Q 731.12 132.57 717.18 141.01
  Q 716.96 141.14 716.82 140.92
  L 712.16 133.12
  Q 712.02 132.88 712.26 132.74
  Q 729.73 122.58 748.72 123.73
  C 764.05 124.65 778.23 133.26 778.25 150.29
  Q 778.27 172.56 778.24 199.49
  Q 778.23 200.00 777.73 200.00
  L 767.75 200.00
  Q 767.25 200.00 767.25 199.50
  L 767.25 188.46
  Q 767.25 187.70 766.74 188.26
  Z
  M 725.69 190.26
  Q 728.17 191.53 731.04 191.98
  C 744.02 193.97 758.38 189.80 765.38 178.42
  C 767.83 174.44 767.27 170.49 767.27 166.08
  Q 767.26 165.48 766.67 165.41
  Q 750.05 163.64 736.29 165.52
  C 730.80 166.27 723.91 168.66 720.54 173.14
  C 715.81 179.42 719.19 186.91 725.69 190.26
  Z"
/>
<path fill="#cfaaff" d="
  M 856.75 131.22
  L 856.75 126.00
  Q 856.74 125.38 857.37 125.38
  L 867.26 125.37
  Q 867.88 125.37 867.88 125.99
  Q 867.85 159.95 867.88 197.95
  Q 867.90 222.27 845.71 229.63
  Q 836.00 232.85 823.78 230.93
  Q 809.57 228.70 799.95 215.73
  Q 799.76 215.48 800.01 215.29
  L 807.09 209.79
  Q 807.34 209.60 807.54 209.85
  Q 815.97 220.59 829.04 221.65
  C 842.18 222.72 855.48 217.31 856.60 202.38
  Q 856.99 197.25 856.66 192.04
  A 0.21 0.20 67.9 0 0 856.32 191.89
  C 847.12 199.77 836.57 201.43 825.06 199.35
  C 802.79 195.32 794.27 175.05 797.63 154.40
  C 800.13 139.07 810.52 127.44 826.13 124.40
  Q 843.30 121.07 856.16 131.50
  Q 856.75 131.98 856.75 131.22
  Z
  M 847.72 135.83
  C 836.72 130.61 822.31 132.02 814.39 141.85
  C 804.36 154.29 805.10 181.89 822.07 188.57
  C 833.74 193.17 847.92 190.96 856.40 181.02
  Q 856.75 180.61 856.75 180.07
  L 856.75 143.43
  A 1.66 1.62 24.6 0 0 856.33 142.34
  Q 852.48 138.08 847.72 135.83
  Z"
/>
<path fill="#cfaaff" d="
  M 931.32 124.14
  L 929.26 124.18
  Q 928.88 124.19 928.88 124.56
  L 928.88 125.16
  Q 928.88 125.67 929.21 125.29
  Q 929.43 125.04 929.67 125.15
  A 0.39 0.39 0.0 0 1 929.66 125.85
  Q 929.51 125.92 929.38 125.84
  Q 928.94 125.58 928.84 126.08
  Q 928.68 126.85 929.32 127.07
  Q 929.88 127.27 929.88 127.88
  L 929.88 133.39
  Q 911.35 130.39 901.70 145.83
  Q 898.55 150.86 897.80 156.61
  A 0.49 0.49 0.0 0 0 898.29 157.17
  L 918.25 157.14
  Q 918.84 157.67 917.20 157.74
  Q 916.19 157.79 917.13 158.17
  L 917.75 158.41
  Q 918.00 158.52 917.74 158.59
  Q 917.57 158.64 917.40 158.63
  A 0.40 0.39 84.8 0 0 917.01 159.11
  Q 917.13 159.67 916.93 160.24
  Q 916.72 160.85 917.36 160.88
  Q 917.82 160.89 918.06 161.30
  Q 918.28 161.67 917.88 161.84
  Q 917.75 161.90 917.61 161.89
  Q 916.98 161.83 916.95 162.47
  Q 916.87 164.38 918.80 166.50
  L 898.13 166.63
  Q 897.62 166.63 897.68 167.13
  Q 899.52 183.93 914.41 190.66
  Q 913.78 190.89 913.46 191.32
  Q 913.04 191.90 913.76 191.86
  Q 914.99 191.80 915.30 193.21
  Q 915.44 193.83 915.05 194.32
  Q 914.27 195.32 914.90 196.51
  A 1.67 1.58 -57.5 0 1 915.08 197.44
  Q 914.97 198.38 914.20 198.44
  Q 914.03 198.46 913.93 198.60
  Q 913.84 198.74 913.85 198.89
  Q 913.88 199.30 914.29 199.23
  Q 914.69 199.16 915.13 199.29
  Q 915.55 199.40 915.49 199.84
  Q 915.43 200.22 915.71 200.79
  C 898.86 196.77 888.48 184.58 886.57 167.51
  C 883.51 140.04 903.52 119.76 931.32 124.14
  Z"
/>
<path fill="#f0e5ff" d="
  M 1048.56 182.71
  C 1046.79 195.44 1032.28 200.18 1021.46 201.34
  Q 997.11 203.97 975.95 191.57
  A 0.86 0.85 29.5 0 1 975.63 190.43
  L 980.06 182.22
  A 0.57 0.57 0.0 0 1 980.87 182.01
  C 995.86 191.61 1011.99 195.22 1028.91 190.39
  Q 1033.38 189.12 1036.02 185.52
  C 1038.92 181.58 1038.47 175.95 1033.99 173.19
  C 1030.36 170.96 1025.74 169.88 1021.53 169.28
  Q 1011.57 167.87 1002.49 166.40
  Q 993.42 164.93 986.03 160.41
  Q 978.62 155.87 978.20 146.66
  Q 977.81 138.16 983.28 132.93
  Q 989.74 126.75 999.59 124.93
  C 1015.03 122.07 1031.36 123.61 1043.92 131.91
  Q 1044.67 132.40 1044.27 133.20
  L 1040.82 140.13
  Q 1040.38 141.00 1039.57 140.46
  Q 1024.42 130.41 1004.25 133.71
  C 998.75 134.60 990.21 137.67 989.24 144.06
  C 987.89 152.97 1000.46 155.02 1006.55 155.78
  Q 1019.47 157.39 1030.08 159.86
  Q 1037.90 161.68 1043.19 166.16
  C 1048.17 170.39 1049.44 176.44 1048.56 182.71
  Z"
/>
<path fill="#e3cdff" d="
  M 931.32 124.14
  C 953.21 127.42 962.28 145.96 962.06 166.21
  Q 962.05 166.48 961.79 166.48
  L 918.80 166.50
  Q 916.87 164.38 916.95 162.47
  Q 916.98 161.83 917.61 161.89
  Q 917.75 161.90 917.88 161.84
  Q 918.28 161.67 918.06 161.30
  Q 917.82 160.89 917.36 160.88
  Q 916.72 160.85 916.93 160.24
  Q 917.13 159.67 917.01 159.11
  A 0.40 0.39 84.8 0 1 917.40 158.63
  Q 917.57 158.64 917.74 158.59
  Q 918.00 158.52 917.75 158.41
  L 917.13 158.17
  Q 916.19 157.79 917.20 157.74
  Q 918.84 157.67 918.25 157.14
  L 949.82 157.13
  Q 950.33 157.13 950.27 156.63
  C 948.91 144.89 941.83 135.71 929.88 133.39
  L 929.88 127.88
  Q 929.88 127.27 929.32 127.07
  Q 928.68 126.85 928.84 126.08
  Q 928.94 125.58 929.38 125.84
  Q 929.51 125.92 929.66 125.85
  A 0.39 0.39 0.0 0 0 929.67 125.15
  Q 929.43 125.04 929.21 125.29
  Q 928.88 125.67 928.88 125.16
  L 928.88 124.56
  Q 928.88 124.19 929.26 124.18
  L 931.32 124.14
  Z"
/>
<path fill="#7b1ef1" d="
  M 560.02 134.74
  L 543.71 134.76
  A 0.35 0.35 0.0 0 1 543.36 134.41
  L 543.38 125.73
  A 0.35 0.35 0.0 0 1 543.73 125.38
  L 571.03 125.37
  A 0.35 0.35 0.0 0 1 571.38 125.72
  L 571.38 190.27
  A 0.35 0.35 0.0 0 0 571.73 190.62
  L 587.78 190.62
  A 0.35 0.35 0.0 0 1 588.13 190.97
  L 588.14 199.65
  A 0.35 0.35 0.0 0 1 587.79 200.00
  L 543.71 200.00
  A 0.35 0.35 0.0 0 1 543.36 199.65
  L 543.37 190.97
  A 0.35 0.35 0.0 0 1 543.72 190.62
  L 560.02 190.63
  A 0.35 0.35 0.0 0 0 560.37 190.28
  L 560.37 135.09
  A 0.35 0.35 0.0 0 0 560.02 134.74
  Z"
/>
<path fill="#dde6eb" fill-opacity="0.318" d="
  M 288.62 158.61
  L 287.90 153.59
  Q 288.11 152.98 287.43 150.98
  Q 289.77 153.16 291.61 150.63
  C 293.29 148.32 294.75 146.21 296.82 144.23
  Q 301.66 139.62 306.29 134.28
  Q 307.34 133.08 308.28 134.36
  Q 308.43 134.57 308.69 134.57
  Q 309.59 134.55 309.13 135.32
  Q 308.17 136.94 307.46 138.74
  Q 306.94 140.06 305.76 141.45
  Q 302.56 145.23 296.75 151.38
  Q 292.25 156.15 288.62 158.61
  Z"
/>
<path fill="#8d3ef3" d="
  M 287.43 150.98
  Q 288.11 152.98 287.90 153.59
  Q 284.63 155.63 282.27 158.99
  Q 281.99 159.39 281.56 159.18
  L 280.13 158.47
  Q 280.39 151.76 275.43 148.08
  C 266.64 141.59 253.18 144.26 244.20 149.32
  Q 243.41 149.92 242.57 150.15
  Q 242.04 150.29 241.75 149.83
  L 238.57 144.90
  Q 238.07 144.12 238.89 143.69
  C 250.28 137.51 265.24 134.69 277.24 140.08
  Q 284.60 143.38 287.43 150.98
  Z"
/>
<path fill="#8d3ef3" d="
  M 335.14 165.24
  L 334.74 162.83
  Q 334.65 162.33 334.31 162.70
  L 326.80 170.75
  L 326.74 146.30
  Q 326.74 145.59 326.02 145.59
  L 314.71 145.67
  Q 314.00 145.67 314.00 144.96
  L 314.00 139.33
  Q 314.00 138.66 314.67 138.66
  L 334.34 138.70
  A 0.84 0.84 0.0 0 1 335.18 139.54
  L 335.14 165.24
  Z"
/>
<path fill="#dde6eb" fill-opacity="0.318" d="
  M 357.78 138.70
  L 352.52 144.56
  Q 352.33 144.77 352.57 144.92
  L 352.90 145.13
  A 0.22 0.22 0.0 0 0 353.20 145.07
  Q 353.95 143.89 355.21 143.70
  L 351.39 148.05
  Q 350.94 148.56 350.64 147.95
  Q 350.07 146.82 351.05 146.06
  Q 351.47 145.74 351.54 145.22
  Q 351.62 144.72 351.98 144.37
  L 357.78 138.70
  Z"
/>
<path fill="#cfa8bc" fill-opacity="0.843" d="
  M 357.78 138.70
  Q 360.05 138.50 357.16 141.38
  L 356.60 141.57
  Q 356.28 141.67 356.42 141.98
  Q 356.49 142.14 356.34 142.26
  Q 356.25 142.33 356.15 142.38
  Q 356.01 142.45 355.86 142.42
  A 0.37 0.36 87.9 0 0 355.44 142.88
  L 355.56 143.31
  Q 355.16 143.52 355.21 143.70
  Q 353.95 143.89 353.20 145.07
  A 0.22 0.22 0.0 0 1 352.90 145.13
  L 352.57 144.92
  Q 352.33 144.77 352.52 144.56
  L 357.78 138.70
  Z"
/>
<path fill="#dde6eb" fill-opacity="0.318" d="
  M 357.16 141.38
  Q 357.18 142.60 355.56 143.31
  L 355.44 142.88
  A 0.37 0.36 87.9 0 1 355.86 142.42
  Q 356.01 142.45 356.15 142.38
  Q 356.25 142.33 356.34 142.26
  Q 356.49 142.14 356.42 141.98
  Q 356.28 141.67 356.60 141.57
  L 357.16 141.38
  Z"
/>
<path fill="#b284f2" fill-opacity="0.141" d="
  M 280.13 158.47
  Q 280.45 162.73 278.92 162.04
  Q 264.60 159.90 250.79 162.81
  Q 251.30 162.35 251.49 161.87
  Q 251.71 161.31 251.17 161.07
  Q 250.46 160.74 249.82 161.25
  A 0.42 0.42 0.0 0 1 249.18 161.09
  Q 249.04 160.77 249.27 160.50
  Q 249.64 160.06 249.08 160.18
  Q 248.82 160.23 248.72 159.88
  A 0.42 0.40 60.0 0 1 248.82 159.47
  L 249.16 159.11
  A 0.74 0.73 53.2 0 0 249.28 158.23
  Q 249.03 157.80 249.31 157.35
  Q 249.48 157.05 249.40 156.72
  Q 249.31 156.37 248.95 156.38
  Q 248.27 156.41 248.51 155.80
  Q 248.60 155.57 248.35 155.52
  A 0.30 0.30 0.0 0 1 248.13 155.13
  L 248.55 153.91
  Q 248.90 152.85 248.36 151.88
  Q 247.77 150.83 247.18 151.19
  Q 246.85 151.38 246.61 151.70
  Q 246.05 152.44 245.12 152.20
  Q 244.41 152.02 245.00 151.58
  Q 245.36 151.32 245.29 150.90
  A 0.74 0.73 4.7 0 0 244.79 150.32
  Q 244.05 150.09 244.20 149.32
  C 253.18 144.26 266.64 141.59 275.43 148.08
  Q 280.39 151.76 280.13 158.47
  Z"
/>
<path fill="#a158ff" d="
  M 287.90 153.59
  L 288.62 158.61
  L 288.46 160.22
  Q 285.15 162.17 283.41 165.75
  Q 283.20 166.19 282.86 166.53
  L 280.09 169.24
  Q 279.42 168.80 278.41 168.82
  L 273.18 168.13
  L 276.49 164.38
  Q 276.83 164.00 277.32 163.87
  Q 278.86 163.47 278.92 162.04
  Q 280.45 162.73 280.13 158.47
  L 281.56 159.18
  Q 281.99 159.39 282.27 158.99
  Q 284.63 155.63 287.90 153.59
  Z"
/>
<path fill="#8d3ef3" d="
  M 288.46 160.22
  L 288.48 194.77
  Q 288.49 195.01 288.25 195.01
  L 280.30 194.99
  Q 280.11 194.99 280.11 194.80
  L 280.14 186.23
  Q 280.14 185.61 279.73 186.08
  Q 268.53 198.55 250.18 195.90
  C 240.52 194.50 233.73 187.89 235.05 177.56
  C 236.15 168.89 243.09 164.99 250.79 162.81
  Q 264.60 159.90 278.92 162.04
  Q 278.86 163.47 277.32 163.87
  Q 276.83 164.00 276.49 164.38
  L 273.18 168.13
  L 271.76 168.29
  C 264.06 167.98 246.54 167.63 243.49 177.32
  Q 242.34 180.97 245.09 184.65
  Q 248.45 189.16 254.80 188.94
  L 258.91 189.21
  Q 268.45 189.01 275.34 182.84
  Q 279.11 179.47 279.97 175.99
  Q 280.40 174.25 280.09 169.24
  L 282.86 166.53
  Q 283.20 166.19 283.41 165.75
  Q 285.15 162.17 288.46 160.22
  Z"
/>
<path fill="#a158ff" d="
  M 335.14 165.24
  Q 335.16 165.30 335.17 165.36
  Q 334.37 166.97 334.30 168.95
  Q 334.26 169.83 333.74 169.15
  Q 333.64 169.02 333.47 169.03
  Q 332.82 169.07 332.89 169.72
  Q 332.92 170.03 332.85 170.35
  A 0.96 0.95 84.9 0 1 332.31 171.00
  Q 331.87 171.20 331.89 171.70
  Q 331.92 172.22 331.62 172.65
  C 330.49 174.26 329.00 176.79 326.74 176.82
  L 326.80 170.75
  L 334.31 162.70
  Q 334.65 162.33 334.74 162.83
  L 335.14 165.24
  Z"
/>
<path fill="#8d3ef3" d="
  M 335.17 165.36
  L 335.08 187.25
  A 0.68 0.68 0.0 0 0 335.76 187.93
  L 347.21 187.91
  Q 347.76 187.91 347.76 188.46
  L 347.75 194.50
  Q 347.75 195.00 347.25 195.00
  L 314.24 195.00
  Q 313.98 195.00 313.98 194.74
  L 313.85 188.09
  Q 313.85 187.77 314.16 187.78
  L 326.10 187.98
  A 0.75 0.75 0.0 0 0 326.86 187.22
  L 326.74 176.82
  C 329.00 176.79 330.49 174.26 331.62 172.65
  Q 331.92 172.22 331.89 171.70
  Q 331.87 171.20 332.31 171.00
  A 0.96 0.95 84.9 0 0 332.85 170.35
  Q 332.92 170.03 332.89 169.72
  Q 332.82 169.07 333.47 169.03
  Q 333.64 169.02 333.74 169.15
  Q 334.26 169.83 334.30 168.95
  Q 334.37 166.97 335.17 165.36
  Z"
/>
<path fill="#a0cccf" fill-opacity="0.145" d="
  M 271.76 168.29
  Q 272.54 170.00 271.17 171.19
  Q 265.80 175.85 264.55 177.16
  Q 259.27 182.67 254.80 188.94
  Q 248.45 189.16 245.09 184.65
  Q 242.34 180.97 243.49 177.32
  C 246.54 167.63 264.06 167.98 271.76 168.29
  Z"
/>
<path fill="#dde6eb" fill-opacity="0.318" d="
  M 271.76 168.29
  L 273.18 168.13
  L 278.41 168.82
  Q 276.93 171.85 275.09 173.35
  Q 271.04 176.65 268.91 179.44
  Q 268.80 179.58 268.62 179.60
  Q 268.27 179.63 268.03 179.88
  L 258.91 189.21
  L 254.80 188.94
  Q 259.27 182.67 264.55 177.16
  Q 265.80 175.85 271.17 171.19
  Q 272.54 170.00 271.76 168.29
  Z"
/>
<path fill="#a0cccf" fill-opacity="0.145" d="
  M 278.41 168.82
  Q 279.42 168.80 280.09 169.24
  Q 280.40 174.25 279.97 175.99
  Q 279.11 179.47 275.34 182.84
  Q 268.45 189.01 258.91 189.21
  L 268.03 179.88
  Q 268.27 179.63 268.62 179.60
  Q 268.80 179.58 268.91 179.44
  Q 271.04 176.65 275.09 173.35
  Q 276.93 171.85 278.41 168.82
  Z"
/>
<path fill="#e3cdff" d="
  M 915.71 200.79
  Q 915.43 200.22 915.49 199.84
  Q 915.55 199.40 915.13 199.29
  Q 914.69 199.16 914.29 199.23
  Q 913.88 199.30 913.85 198.89
  Q 913.84 198.74 913.93 198.60
  Q 914.03 198.46 914.20 198.44
  Q 914.97 198.38 915.08 197.44
  A 1.67 1.58 -57.5 0 0 914.90 196.51
  Q 914.27 195.32 915.05 194.32
  Q 915.44 193.83 915.30 193.21
  Q 914.99 191.80 913.76 191.86
  Q 913.04 191.90 913.46 191.32
  Q 913.78 190.89 914.41 190.66
  C 927.61 194.95 941.79 191.83 950.43 180.72
  Q 950.58 180.52 950.79 180.67
  L 957.89 185.60
  Q 958.09 185.73 957.94 185.93
  Q 950.43 196.19 940.53 199.63
  Q 929.10 203.60 915.71 200.79
  Z"
/>
<path fill="#dde6eb" fill-opacity="0.318" d="
  M 305.03 201.90
  Q 304.15 202.90 303.57 204.21
  Q 303.55 204.26 303.50 204.29
  Q 300.68 205.70 299.01 208.35
  A 2.50 2.05 -47.3 0 1 295.19 208.88
  Q 294.56 207.88 295.79 207.15
  Q 296.21 206.91 296.14 206.43
  Q 296.07 205.98 296.36 205.63
  C 297.85 203.82 299.56 202.22 300.92 200.34
  Q 304.25 195.75 308.23 191.91
  Q 308.64 191.51 309.21 191.40
  Q 310.07 191.24 310.54 190.59
  Q 310.76 190.28 311.13 190.37
  Q 311.42 190.43 311.37 190.58
  Q 311.14 191.23 311.83 191.13
  Q 311.98 191.11 312.13 191.16
  Q 312.28 191.22 312.37 191.36
  Q 312.78 191.96 312.60 192.71
  Q 312.53 193.01 312.23 193.07
  Q 311.13 193.32 310.84 194.47
  Q 310.69 195.07 310.22 195.46
  Q 309.70 195.88 309.68 196.55
  Q 309.66 197.10 309.25 197.47
  L 306.66 199.76
  Q 306.30 200.08 306.24 200.56
  Q 306.16 201.10 305.70 201.36
  Q 305.32 201.57 305.03 201.90
  Z"
/>
<path fill="#cfa8bc" fill-opacity="0.843" d="
  M 234.38 211.50
  Q 234.53 212.07 234.02 212.30
  Q 233.74 212.42 233.48 212.23
  Q 233.02 211.92 233.40 211.52
  L 237.66 206.98
  Q 237.90 206.73 238.05 207.03
  L 238.37 207.66
  Q 238.52 207.95 238.29 208.18
  L 234.96 211.48
  Q 234.86 211.58 234.72 211.57
  Q 234.55 211.56 234.47 211.45
  Q 234.31 211.24 234.38 211.50
  Z"
/>
<path fill="#f0e5ff" d="
  M 288.37 215.27
  Q 288.50 215.25 288.63 215.20
  Q 288.76 215.15 288.80 215.02
  Q 289.49 212.89 288.46 210.99
  Q 288.30 210.71 288.50 210.45
  Q 289.15 209.61 288.75 208.57
  Q 288.55 208.06 289.10 208.08
  L 289.39 208.08
  Q 289.59 208.09 289.61 208.29
  Q 289.68 209.02 289.39 209.75
  Q 289.20 210.23 289.42 210.70
  Q 290.14 212.23 289.91 214.08
  Q 289.84 214.68 290.30 215.07
  L 290.55 215.28
  Q 291.32 215.93 290.31 216.04
  Q 289.25 216.15 288.34 215.94
  Q 286.40 215.51 288.37 215.27
  Z"
/>
<path fill="#f0e5ff" d="
  M 296.35 210.80
  Q 296.77 210.99 296.61 211.42
  Q 295.87 213.46 296.24 215.40
  Q 296.29 215.68 296.01 215.68
  L 295.63 215.69
  Q 295.41 215.70 295.42 215.49
  L 295.55 211.94
  Q 295.58 211.05 294.69 211.15
  L 294.43 211.18
  A 0.38 0.38 0.0 0 0 294.08 211.55
  L 294.00 215.76
  Q 294.00 216.01 293.74 216.01
  L 293.26 216.01
  Q 293.02 216.00 293.01 215.76
  L 292.93 211.25
  A 0.88 0.87 86.4 0 1 293.70 210.37
  Q 295.09 210.22 296.35 210.80
  Z"
/>
<path fill="#f0e5ff" d="
  M 297.47 211.10
  Q 297.29 210.97 297.10 210.86
  Q 297.00 210.81 297.04 210.70
  Q 297.34 209.90 298.30 210.61
  A 0.69 0.68 17.0 0 1 298.57 211.11
  L 298.86 215.48
  Q 298.88 215.74 298.61 215.73
  L 298.24 215.72
  A 0.20 0.19 88.4 0 1 298.05 215.53
  L 297.90 211.91
  Q 297.88 211.41 297.47 211.10
  Z"
/>
<path fill="#f0e5ff" d="
  M 304.03 212.23
  L 303.97 211.94
  Q 303.86 211.25 303.17 211.14
  Q 301.46 210.87 300.51 211.74
  Q 300.46 211.79 300.42 211.73
  L 300.26 211.47
  Q 300.14 211.28 300.33 211.14
  Q 302.44 209.61 304.46 211.10
  Q 304.87 211.40 304.89 211.91
  L 305.02 215.16
  Q 305.04 215.62 304.58 215.69
  L 301.49 216.17
  A 1.38 1.38 0.0 0 1 299.90 214.71
  Q 300.07 212.18 303.34 212.89
  A 0.58 0.58 0.0 0 0 304.03 212.23
  Z
  M 304.05 214.71
  L 303.85 213.76
  Q 303.74 213.28 303.25 213.26
  Q 302.12 213.23 301.16 213.75
  Q 300.72 213.99 300.65 214.48
  Q 300.55 215.20 301.25 215.28
  Q 302.29 215.41 303.57 215.34
  Q 304.18 215.31 304.05 214.71
  Z"
/>
<path fill="#f0e5ff" d="
  M 317.78 214.48
  Q 317.53 212.62 317.17 212.08
  Q 316.15 210.54 314.88 211.26
  Q 314.52 211.47 314.27 211.82
  Q 314.01 212.19 313.90 212.63
  Q 313.75 213.28 314.40 213.12
  Q 315.54 212.83 316.67 213.13
  Q 317.41 213.33 316.69 213.56
  Q 315.74 213.88 314.68 213.62
  Q 314.09 213.48 313.94 214.07
  Q 313.82 214.56 314.18 214.86
  Q 315.75 216.21 317.78 214.48
  Q 317.90 214.98 317.65 215.46
  Q 317.40 215.93 316.89 216.04
  C 313.38 216.77 311.43 213.22 314.00 210.89
  C 316.07 209.01 319.32 211.74 317.78 214.48
  Z"
/>
<path fill="#f0e5ff" d="
  M 310.19 215.75
  Q 309.51 215.76 308.87 215.88
  C 306.91 216.25 305.99 214.19 306.34 212.52
  A 2.68 2.68 0.0 0 1 309.74 210.52
  Q 310.40 210.72 311.11 210.64
  Q 311.72 210.57 311.63 211.18
  Q 311.36 212.99 311.54 215.16
  C 311.78 218.10 309.31 218.88 306.89 217.83
  Q 306.73 217.76 306.75 217.59
  L 306.81 217.17
  Q 306.87 216.70 307.24 216.99
  C 308.34 217.87 310.09 217.85 310.64 216.39
  Q 310.89 215.74 310.19 215.75
  Z
  M 310.52 214.45
  L 310.65 211.95
  A 0.75 0.75 0.0 0 0 309.94 211.16
  L 309.16 211.13
  A 2.03 1.91 2.9 0 0 307.04 212.93
  L 307.03 213.11
  A 2.03 1.91 2.9 0 0 308.96 215.12
  L 309.74 215.16
  A 0.75 0.75 0.0 0 0 310.52 214.45
  Z"
/>
<path fill="#cfa8bc" fill-opacity="0.843" d="
  M 341.13 210.34
  A 0.10 0.10 0.0 0 1 341.27 210.32
  L 341.34 210.37
  A 4.09 1.44 -53.8 0 1 340.08 214.52
  L 339.82 214.88
  A 4.09 1.44 -53.8 0 1 336.25 217.33
  L 336.18 217.28
  A 0.10 0.10 0.0 0 1 336.16 217.14
  L 341.13 210.34
  Z"
/>
<path fill="#a0cccf" fill-opacity="0.145" d="
  M 310.52 214.45
  A 0.75 0.75 0.0 0 1 309.74 215.16
  L 308.96 215.12
  A 2.03 1.91 2.9 0 1 307.03 213.11
  L 307.04 212.93
  A 2.03 1.91 2.9 0 1 309.16 211.13
  L 309.94 211.16
  A 0.75 0.75 0.0 0 1 310.65 211.95
  L 310.52 214.45
  Z"
/>
<path fill="#a0cccf" fill-opacity="0.145" d="
  M 317.78 214.48
  Q 315.75 216.21 314.18 214.86
  Q 313.82 214.56 313.94 214.07
  Q 314.09 213.48 314.68 213.62
  Q 315.74 213.88 316.69 213.56
  Q 317.41 213.33 316.67 213.13
  Q 315.54 212.83 314.40 213.12
  Q 313.75 213.28 313.90 212.63
  Q 314.01 212.19 314.27 211.82
  Q 314.52 211.47 314.88 211.26
  Q 316.15 210.54 317.17 212.08
  Q 317.53 212.62 317.78 214.48
  Z"
/>
<path fill="#a0cccf" fill-opacity="0.145" d="
  M 303.57 215.34
  Q 302.29 215.41 301.25 215.28
  Q 300.55 215.20 300.65 214.48
  Q 300.72 213.99 301.16 213.75
  Q 302.12 213.23 303.25 213.26
  Q 303.74 213.28 303.85 213.76
  L 304.05 214.71
  Q 304.18 215.31 303.57 215.34
  Z"
/>
<path fill="#f0e5ff" d="
  M 312.30 222.56
  L 313.31 222.37
  A 0.31 0.31 0.0 0 1 313.68 222.66
  L 313.70 223.01
  Q 313.71 223.23 313.49 223.23
  L 312.22 223.24
  Q 311.68 223.24 311.68 223.78
  L 311.65 226.26
  Q 311.64 227.19 312.57 227.31
  Q 313.76 227.47 314.49 226.34
  A 0.29 0.28 -23.7 0 1 315.01 226.54
  Q 314.74 228.05 313.05 228.08
  Q 310.74 228.14 310.77 225.83
  L 310.80 223.80
  Q 310.81 223.21 310.25 223.05
  Q 310.07 223.00 309.90 222.95
  Q 309.25 222.79 309.81 222.44
  Q 309.95 222.35 310.11 222.35
  Q 310.87 222.35 310.77 221.59
  Q 310.69 221.01 310.80 220.46
  Q 310.95 219.73 311.32 220.37
  Q 311.77 221.14 311.70 222.02
  Q 311.64 222.69 312.30 222.56
  Z"
/>
<path fill="#f0e5ff" d="
  M 318.61 221.30
  Q 318.06 220.84 318.48 220.28
  A 0.38 0.38 0.0 0 1 319.12 220.34
  Q 319.45 221.02 319.02 221.79
  Q 318.85 222.08 318.69 221.79
  Q 318.63 221.67 318.68 221.53
  Q 318.72 221.39 318.61 221.30
  Z"
/>
<path fill="#f0e5ff" d="
  M 320.01 227.09
  Q 320.15 227.10 320.28 227.17
  Q 320.74 227.42 320.25 227.60
  Q 319.08 228.00 317.75 227.98
  Q 317.08 227.96 317.51 227.45
  Q 319.23 225.43 317.64 223.03
  Q 317.45 222.73 317.57 222.39
  Q 317.78 221.78 318.67 222.80
  Q 319.27 223.49 319.25 224.41
  L 319.22 226.22
  Q 319.21 227.02 320.01 227.09
  Z"
/>
<path fill="#f0e5ff" d="
  M 273.87 227.78
  C 270.29 228.77 268.77 224.55 271.55 222.72
  C 272.72 221.96 273.84 222.66 275.07 222.71
  Q 275.57 222.73 275.48 223.22
  Q 275.06 225.48 275.41 227.92
  A 1.63 1.57 -35.3 0 1 275.22 228.91
  Q 273.96 231.19 270.88 229.81
  Q 270.72 229.73 270.74 229.56
  L 270.78 229.17
  Q 270.82 228.81 271.15 228.94
  Q 271.72 229.16 272.27 229.47
  C 273.14 229.97 274.24 229.38 274.55 228.51
  A 0.56 0.56 0.0 0 0 273.87 227.78
  Z
  M 271.62 226.89
  L 273.69 227.14
  A 0.75 0.75 0.0 0 0 274.52 226.48
  L 274.66 225.31
  A 2.09 1.73 -83.3 0 0 273.18 223.03
  L 273.06 223.02
  A 2.09 1.73 -83.3 0 0 271.10 224.89
  L 270.97 226.06
  A 0.75 0.75 0.0 0 0 271.62 226.89
  Z"
/>
<path fill="#f0e5ff" d="
  M 281.62 227.35
  A 1.16 1.16 0.0 0 1 280.28 228.29
  L 279.09 228.07
  A 2.82 2.77 -79.7 0 1 276.86 224.80
  L 276.88 224.72
  A 2.82 2.77 -79.7 0 1 280.11 222.44
  L 281.30 222.66
  A 1.16 1.16 0.0 0 1 282.23 224.01
  L 281.62 227.35
  Z
  M 278.21 225.07
  L 280.92 224.91
  A 0.29 0.29 0.0 0 0 281.20 224.60
  L 281.19 224.42
  A 1.51 1.43 -3.4 0 0 279.59 223.08
  L 279.31 223.10
  A 1.51 1.43 -3.4 0 0 277.89 224.62
  L 277.90 224.80
  A 0.29 0.29 0.0 0 0 278.21 225.07
  Z
  M 280.71 225.66
  Q 279.45 225.88 278.40 225.72
  Q 277.69 225.61 277.97 226.28
  L 278.07 226.52
  Q 278.36 227.22 279.12 227.30
  Q 280.44 227.44 281.39 226.54
  Q 281.65 226.28 281.62 225.92
  Q 281.58 225.52 281.20 225.40
  Q 281.12 225.38 281.06 225.44
  Q 281.03 225.47 280.99 225.51
  Q 280.88 225.63 280.71 225.66
  Z"
/>
<path fill="#f0e5ff" d="
  M 284.63 223.01
  Q 286.76 221.52 288.11 223.09
  A 1.33 1.31 -67.2 0 1 288.44 223.91
  L 288.59 227.50
  Q 288.60 227.75 288.34 227.75
  L 287.98 227.75
  Q 287.73 227.75 287.73 227.51
  L 287.76 224.31
  A 1.30 1.30 0.0 0 0 285.60 223.33
  Q 283.95 224.80 284.54 227.20
  Q 284.67 227.71 284.16 227.81
  L 283.76 227.90
  A 0.24 0.24 0.0 0 1 283.48 227.61
  Q 283.99 225.50 283.46 223.11
  Q 283.37 222.69 283.79 222.60
  Q 283.96 222.57 284.06 222.83
  A 0.38 0.38 0.0 0 0 284.63 223.01
  Z"
/>
<path fill="#f0e5ff" d="
  M 291.90 225.65
  Q 290.19 225.71 291.41 226.92
  Q 292.54 228.04 294.14 226.95
  Q 294.48 226.72 294.69 227.06
  L 294.83 227.28
  Q 294.96 227.48 294.75 227.60
  C 292.04 229.21 289.03 227.22 290.19 224.02
  C 291.13 221.42 295.16 221.91 295.30 224.80
  Q 295.32 225.38 294.74 225.45
  Q 293.36 225.60 291.90 225.65
  Z
  M 291.24 225.23
  L 294.13 224.92
  A 0.26 0.26 0.0 0 0 294.36 224.63
  L 294.34 224.49
  A 1.58 1.57 -6.1 0 0 292.60 223.09
  L 292.35 223.12
  A 1.58 1.57 -6.1 0 0 290.94 224.85
  L 290.96 225.00
  A 0.26 0.26 0.0 0 0 291.24 225.23
  Z"
/>
<path fill="#f0e5ff" d="
  M 297.64 226.13
  Q 297.45 225.17 297.81 224.14
  A 0.62 0.60 28.4 0 0 297.60 223.46
  Q 297.24 223.20 296.78 223.12
  Q 296.01 222.99 296.67 222.57
  Q 297.06 222.32 297.50 222.50
  Q 299.01 223.07 300.32 222.44
  Q 300.76 222.22 301.22 222.41
  Q 301.45 222.51 301.56 222.72
  Q 301.96 223.43 301.20 223.14
  Q 301.04 223.08 300.88 223.06
  Q 300.72 223.04 300.56 223.08
  Q 298.09 223.72 298.53 226.39
  Q 298.61 226.92 299.13 227.08
  Q 299.36 227.16 299.50 227.37
  Q 299.93 228.01 299.16 227.96
  L 296.95 227.84
  Q 296.47 227.82 296.69 227.39
  Q 296.77 227.23 296.92 227.19
  Q 297.81 226.99 297.64 226.13
  Z"
/>
<path fill="#f0e5ff" d="
  M 306.68 224.97
  A 0.40 0.40 0.0 0 0 307.19 224.67
  Q 307.33 223.92 306.78 223.37
  Q 306.33 222.91 305.71 222.98
  Q 304.72 223.08 303.69 223.46
  Q 302.86 223.77 303.49 223.14
  C 304.93 221.68 307.96 222.05 308.11 224.48
  Q 308.19 225.75 308.14 227.06
  Q 308.12 227.56 307.66 227.72
  Q 305.39 228.56 303.82 227.82
  A 1.43 1.43 0.0 0 1 303.65 225.34
  Q 305.01 224.45 306.68 224.97
  Z
  M 307.2391 226.0292
  A 1.70 1.05 -12.6 0 0 305.3509 225.3753
  A 1.70 1.05 -12.6 0 0 303.9209 226.7708
  A 1.70 1.05 -12.6 0 0 305.8091 227.4247
  A 1.70 1.05 -12.6 0 0 307.2391 226.0292
  Z"
/>
<path fill="#f0e5ff" d="
  M 328.31 225.30
  A 2.91 2.91 0.0 0 1 325.40 228.21
  A 2.91 2.91 0.0 0 1 322.49 225.30
  A 2.91 2.91 0.0 0 1 325.40 222.39
  A 2.91 2.91 0.0 0 1 328.31 225.30
  Z
  M 327.45 225.22
  A 2.10 2.10 0.0 0 0 325.35 223.12
  A 2.10 2.10 0.0 0 0 323.25 225.22
  A 2.10 2.10 0.0 0 0 325.35 227.32
  A 2.10 2.10 0.0 0 0 327.45 225.22
  Z"
/>
<path fill="#f0e5ff" d="
  M 330.41 224.71
  L 330.29 227.46
  A 0.45 0.44 4.8 0 1 329.79 227.88
  L 329.46 227.84
  Q 329.13 227.81 329.15 227.46
  L 329.44 223.46
  Q 329.48 222.90 330.03 222.79
  L 333.06 222.17
  A 0.83 0.82 -15.1 0 1 334.01 222.71
  Q 334.71 224.81 334.33 227.42
  Q 334.28 227.78 333.92 227.74
  L 333.48 227.69
  Q 333.40 227.69 333.41 227.61
  Q 333.86 225.38 333.37 224.19
  A 1.54 1.54 0.0 0 0 330.41 224.71
  Z"
/>
<path fill="#a0cccf" fill-opacity="0.145" d="
  M 271.62 226.89
  A 0.75 0.75 0.0 0 1 270.97 226.06
  L 271.10 224.89
  A 2.09 1.73 -83.3 0 1 273.06 223.02
  L 273.18 223.03
  A 2.09 1.73 -83.3 0 1 274.66 225.31
  L 274.52 226.48
  A 0.75 0.75 0.0 0 1 273.69 227.14
  L 271.62 226.89
  Z"
/>
<path fill="#a0cccf" fill-opacity="0.145" d="
  M 278.21 225.07
  A 0.29 0.29 0.0 0 1 277.90 224.80
  L 277.89 224.62
  A 1.51 1.43 -3.4 0 1 279.31 223.10
  L 279.59 223.08
  A 1.51 1.43 -3.4 0 1 281.19 224.42
  L 281.20 224.60
  A 0.29 0.29 0.0 0 1 280.92 224.91
  L 278.21 225.07
  Z"
/>
<path fill="#a0cccf" fill-opacity="0.145" d="
  M 291.24 225.23
  A 0.26 0.26 0.0 0 1 290.96 225.00
  L 290.94 224.85
  A 1.58 1.57 -6.1 0 1 292.35 223.12
  L 292.60 223.09
  A 1.58 1.57 -6.1 0 1 294.34 224.49
  L 294.36 224.63
  A 0.26 0.26 0.0 0 1 294.13 224.92
  L 291.24 225.23
  Z"
/>
<circle fill="#b284f2" fill-opacity="0.141" cx="325.35" cy="225.22" r="2.10"/>
<path fill="#a0cccf" fill-opacity="0.145" d="
  M 280.99 225.51
  Q 281.03 225.47 281.06 225.44
  Q 281.12 225.38 281.20 225.40
  Q 281.58 225.52 281.62 225.92
  Q 281.65 226.28 281.39 226.54
  Q 280.44 227.44 279.12 227.30
  Q 278.36 227.22 278.07 226.52
  L 277.97 226.28
  Q 277.69 225.61 278.40 225.72
  Q 279.45 225.88 280.71 225.66
  Q 280.88 225.63 280.99 225.51
  Z"
/>
<ellipse fill="#a0cccf" fill-opacity="0.145" cx="0.00" cy="0.00" transform="translate(305.58,226.40) rotate(-12.6)" rx="1.70" ry="1.05"/>
</svg>
