<?xml version="1.0" encoding="UTF-8" standalone="no"?>
<!DOCTYPE svg PUBLIC "-//W3C//DTD SVG 1.1//EN" "http://www.w3.org/Graphics/SVG/1.1/DTD/svg11.dtd">
<svg xmlns="http://www.w3.org/2000/svg" version="1.1" viewBox="0.00 0.00 1204.00 311.00">
<g stroke-width="2.00" fill="none" stroke-linecap="butt">
<path stroke="#9f9f9f" vector-effect="non-scaling-stroke" d="
  M 259.50 113.30
  A 0.33 0.33 0.0 0 0 259.17 112.97
  L 242.57 112.97
  A 0.33 0.33 0.0 0 0 242.24 113.30
  L 242.24 129.92
  A 0.33 0.33 0.0 0 0 242.57 130.25
  L 259.17 130.25
  A 0.33 0.33 0.0 0 0 259.50 129.92
  L 259.50 113.30"
/>
<path stroke="#9f9f9f" vector-effect="non-scaling-stroke" d="
  M 197.17 193.30
  L 197.12 197.43
  Q 197.11 198.00 197.68 198.00
  L 210.96 198.00
  A 0.55 0.55 0.0 0 0 211.51 197.45
  Q 211.48 178.10 211.50 158.26
  C 211.52 139.14 194.08 132.70 177.35 134.60
  Q 165.39 135.95 154.69 143.05
  Q 154.27 143.33 154.53 143.76
  L 160.81 154.16
  Q 161.14 154.71 161.67 154.35
  Q 171.42 147.69 181.96 147.27
  C 188.98 146.98 197.13 149.98 197.19 158.17
  Q 197.19 158.73 196.64 158.67
  C 181.45 157.10 151.97 157.79 151.88 179.82
  C 151.82 193.69 163.47 199.16 175.70 199.38
  Q 187.31 199.59 196.60 193.00
  Q 197.18 192.59 197.17 193.30"
/>
<path stroke="#9f9f9f" vector-effect="non-scaling-stroke" d="
  M 270.74 185.19
  A 0.31 0.31 0.0 0 0 270.43 184.88
  L 258.40 184.87
  A 0.31 0.31 0.0 0 1 258.09 184.56
  L 258.10 135.99
  A 0.31 0.31 0.0 0 0 257.79 135.68
  L 231.27 135.64
  A 0.31 0.31 0.0 0 0 230.96 135.95
  L 231.01 148.32
  A 0.31 0.31 0.0 0 0 231.32 148.63
  L 243.46 148.63
  A 0.31 0.31 0.0 0 1 243.77 148.94
  L 243.76 184.52
  A 0.31 0.31 0.0 0 1 243.45 184.83
  L 231.32 184.84
  A 0.31 0.31 0.0 0 0 231.01 185.15
  L 230.92 197.69
  A 0.31 0.31 0.0 0 0 231.23 198.00
  L 270.46 198.00
  A 0.31 0.31 0.0 0 0 270.77 197.69
  L 270.74 185.19"
/>
<path stroke="#9f9f9f" vector-effect="non-scaling-stroke" d="
  M 208.93 209.16
  Q 208.94 209.34 209.05 209.51
  Q 209.27 209.88 209.46 209.49
  Q 209.69 209.02 209.66 208.53
  Q 209.65 208.34 209.48 208.24
  Q 209.27 208.11 209.04 208.15
  Q 208.76 208.21 208.76 208.49
  Q 208.75 208.75 208.88 208.97
  Q 208.93 209.06 208.93 209.16"
/>
<path stroke="#9f9f9f" vector-effect="non-scaling-stroke" d="
  M 210.00 214.37
  Q 210.13 212.43 209.37 210.44
  A 0.45 0.44 53.9 0 0 208.61 210.32
  Q 208.49 210.47 208.30 210.53
  Q 207.58 210.77 208.28 211.05
  Q 209.16 211.41 209.11 212.35
  Q 209.07 213.03 209.18 213.71
  Q 209.35 214.76 208.45 215.28
  Q 207.54 215.80 208.57 215.98
  Q 209.50 216.13 210.47 215.97
  Q 210.94 215.89 210.76 215.44
  Q 210.69 215.28 210.52 215.21
  Q 209.96 214.98 210.00 214.37"
/>
<path stroke="#9f9f9f" vector-effect="non-scaling-stroke" d="
  M 214.41 211.24
  L 214.82 211.24
  Q 215.43 211.25 215.43 211.85
  L 215.42 215.59
  Q 215.42 215.80 215.63 215.81
  L 215.91 215.81
  Q 216.20 215.82 216.19 215.53
  Q 216.11 213.27 216.46 211.99
  Q 216.80 210.76 215.54 210.54
  Q 214.82 210.41 214.45 210.35
  A 1.21 1.20 5.3 0 0 213.04 211.51
  L 212.97 215.73
  Q 212.96 216.00 213.23 215.99
  L 213.61 215.99
  Q 213.96 215.99 213.97 215.64
  L 214.12 211.51
  Q 214.13 211.24 214.41 211.24"
/>
<path stroke="#9f9f9f" vector-effect="non-scaling-stroke" d="
  M 217.38 211.06
  C 218.49 211.92 218.15 214.37 217.95 215.55
  Q 217.92 215.75 218.10 215.85
  Q 218.24 215.93 218.45 215.83
  Q 218.63 215.74 218.67 215.54
  Q 219.18 212.84 218.22 210.64
  Q 218.08 210.31 217.72 210.28
  Q 217.52 210.26 217.37 210.38
  Q 216.94 210.73 217.38 211.06"
/>
<path stroke="#9f9f9f" vector-effect="non-scaling-stroke" d="
  M 220.76 214.20
  Q 221.47 213.38 222.63 213.49
  Q 223.06 213.53 223.06 213.10
  L 223.07 212.84
  Q 223.07 212.76 222.99 212.76
  Q 221.87 212.77 220.76 213.17
  Q 220.11 213.39 219.89 214.10
  Q 219.61 214.95 220.16 215.63
  A 1.38 1.38 0.0 0 0 221.34 216.13
  L 224.21 215.90
  Q 225.01 215.84 224.98 215.03
  L 224.85 211.92
  A 1.12 1.11 -74.1 0 0 224.38 211.07
  Q 222.05 209.45 220.61 211.18
  Q 219.76 212.21 220.89 211.49
  Q 222.63 210.41 223.69 211.59
  Q 224.27 212.23 223.77 213.01
  Q 223.54 213.37 223.73 213.75
  Q 223.99 214.26 223.98 214.83
  Q 223.97 215.40 223.41 215.43
  Q 221.98 215.52 220.98 215.10
  Q 220.25 214.80 220.76 214.20"
/>
<path stroke="#9f9f9f" vector-effect="non-scaling-stroke" d="
  M 230.55 216.51
  Q 229.55 218.28 227.33 217.10
  Q 227.04 216.95 226.88 217.22
  L 226.75 217.44
  A 0.27 0.27 0.0 0 0 226.87 217.82
  Q 229.56 219.01 231.11 217.28
  A 1.58 1.58 0.0 0 0 231.51 216.23
  L 231.50 211.22
  Q 231.50 210.63 230.91 210.67
  Q 230.16 210.72 229.48 210.40
  A 1.34 1.33 46.5 0 0 228.45 210.37
  Q 226.30 211.20 226.25 212.99
  Q 226.17 216.51 230.06 215.81
  Q 231.05 215.63 230.55 216.51"
/>
<path stroke="#9f9f9f" vector-effect="non-scaling-stroke" d="
  M 234.48 213.77
  L 236.84 213.65
  Q 239.36 213.52 237.73 211.59
  C 234.22 207.42 230.62 214.49 234.73 215.94
  Q 236.84 216.69 237.69 215.12
  Q 238.10 214.36 237.36 214.81
  Q 235.86 215.71 234.52 215.15
  Q 234.03 214.95 233.95 214.44
  Q 233.84 213.80 234.48 213.77"
/>
<path stroke="#9f9f9f" vector-effect="non-scaling-stroke" d="
  M 239.08 221.73
  Q 239.39 220.99 239.09 220.33
  Q 238.86 219.80 238.57 220.30
  Q 238.21 220.96 238.60 221.75
  Q 238.86 222.27 239.08 221.73"
/>
<path stroke="#9f9f9f" vector-effect="non-scaling-stroke" d="
  M 231.72 221.97
  Q 231.91 221.11 231.38 220.58
  Q 230.53 219.72 230.82 220.90
  Q 231.18 222.37 229.77 222.45
  Q 229.47 222.46 229.52 222.85
  Q 229.57 223.26 229.96 223.13
  Q 230.35 222.99 230.68 223.44
  A 0.68 0.67 -59.9 0 1 230.80 223.91
  C 230.50 226.13 230.86 228.93 234.06 227.82
  Q 234.80 227.56 234.91 226.81
  Q 235.11 225.55 234.34 226.57
  Q 233.57 227.58 232.50 227.28
  Q 231.64 227.04 231.66 226.16
  L 231.69 223.46
  Q 231.71 222.55 232.42 223.11
  Q 232.98 223.54 233.51 223.12
  Q 234.04 222.71 233.43 222.44
  Q 232.85 222.18 232.31 222.44
  Q 231.54 222.81 231.72 221.97"
/>
<path stroke="#9f9f9f" vector-effect="non-scaling-stroke" d="
  M 194.54 228.55
  Q 193.58 230.30 191.21 229.04
  Q 190.92 228.88 190.84 229.21
  L 190.77 229.53
  Q 190.75 229.63 190.84 229.69
  C 192.84 230.99 195.60 230.29 195.42 227.51
  Q 195.29 225.52 195.44 223.53
  Q 195.48 222.87 194.86 222.65
  Q 192.08 221.66 190.72 223.55
  C 188.97 226.01 191.08 228.38 194.01 227.83
  Q 195.05 227.63 194.54 228.55"
/>
<path stroke="#9f9f9f" vector-effect="non-scaling-stroke" d="
  M 198.44 225.88
  L 201.72 225.63
  Q 202.23 225.59 202.23 225.07
  C 202.19 221.38 196.65 221.20 196.90 225.72
  C 197.05 228.37 200.02 228.66 201.82 227.37
  Q 202.01 227.23 201.88 227.03
  L 201.70 226.75
  Q 201.50 226.42 201.19 226.65
  Q 199.80 227.65 198.39 227.06
  Q 198.09 226.93 197.96 226.62
  Q 197.91 226.50 197.93 226.36
  Q 197.99 225.91 198.44 225.88"
/>
<path stroke="#9f9f9f" vector-effect="non-scaling-stroke" d="
  M 207.74 222.74
  C 206.48 221.54 205.51 222.91 204.17 222.88
  Q 203.62 222.88 203.61 223.43
  L 203.52 227.62
  Q 203.51 228.00 203.88 227.91
  L 204.29 227.82
  Q 204.49 227.78 204.47 227.57
  C 204.34 225.94 204.49 222.37 207.10 223.26
  A 0.93 0.92 9.0 0 1 207.73 224.12
  L 207.77 227.59
  Q 207.78 227.89 208.09 227.89
  L 208.36 227.88
  Q 208.63 227.87 208.62 227.61
  C 208.58 226.12 208.83 223.78 207.74 222.74"
/>
<path stroke="#9f9f9f" vector-effect="non-scaling-stroke" d="
  M 211.79 225.77
  L 214.72 225.53
  Q 215.33 225.48 215.30 224.87
  C 215.20 222.63 212.56 221.49 210.96 222.99
  C 208.17 225.61 211.05 229.56 214.80 227.51
  Q 214.96 227.42 214.86 227.26
  L 214.71 227.01
  Q 214.51 226.69 214.20 226.90
  Q 212.51 228.02 211.38 226.88
  Q 210.39 225.88 211.79 225.77"
/>
<path stroke="#9f9f9f" vector-effect="non-scaling-stroke" d="
  M 217.25 227.02
  L 216.92 227.19
  Q 215.82 227.75 217.05 227.81
  L 219.14 227.91
  Q 219.78 227.95 219.45 227.39
  Q 219.32 227.17 219.10 227.12
  Q 218.57 226.99 218.49 226.46
  Q 218.10 224.01 220.05 223.26
  Q 220.47 223.10 220.91 223.16
  Q 221.07 223.19 221.23 223.22
  Q 221.82 223.34 221.60 222.79
  Q 221.51 222.55 221.21 222.48
  Q 220.78 222.38 220.37 222.51
  Q 218.64 223.01 217.01 222.33
  Q 216.79 222.25 216.58 222.39
  Q 216.09 222.71 216.62 222.96
  L 217.26 223.26
  Q 217.83 223.53 217.73 224.15
  Q 217.55 225.21 217.69 226.17
  Q 217.78 226.75 217.25 227.02"
/>
<path stroke="#9f9f9f" vector-effect="non-scaling-stroke" d="
  M 224.11 226.05
  Q 225.01 225.42 226.25 225.40
  A 0.14 0.14 0.0 0 0 226.39 225.26
  L 226.39 225.01
  Q 226.39 224.86 226.23 224.84
  Q 224.75 224.71 223.61 225.44
  A 1.35 1.35 0.0 0 0 223.91 227.86
  Q 225.61 228.43 227.68 227.74
  Q 228.17 227.58 228.14 227.06
  L 227.96 223.72
  Q 227.93 223.19 227.48 222.89
  Q 225.38 221.53 223.68 223.08
  Q 222.70 223.98 223.91 223.42
  Q 226.92 222.02 227.12 224.51
  Q 227.19 225.37 227.12 226.40
  Q 227.07 227.07 226.43 227.29
  Q 225.19 227.73 224.13 227.03
  A 0.59 0.59 0.0 0 1 224.11 226.05"
/>
<path stroke="#9f9f9f" vector-effect="non-scaling-stroke" d="
  M 239.22 226.49
  L 239.26 223.49
  Q 239.27 222.91 238.72 222.72
  L 238.03 222.48
  Q 236.98 222.13 237.65 223.01
  Q 239.32 225.23 237.66 227.37
  Q 237.18 227.99 237.97 227.96
  L 240.04 227.88
  Q 240.72 227.86 240.28 227.34
  Q 240.10 227.12 239.86 227.12
  Q 239.21 227.14 239.22 226.49"
/>
<path stroke="#9f9f9f" vector-effect="non-scaling-stroke" d="
  M 248.32 225.29
  A 2.91 2.91 0.0 0 0 245.41 222.38
  A 2.91 2.91 0.0 0 0 242.50 225.29
  A 2.91 2.91 0.0 0 0 245.41 228.20
  A 2.91 2.91 0.0 0 0 248.32 225.29"
/>
<path stroke="#9f9f9f" vector-effect="non-scaling-stroke" d="
  M 252.35 223.13
  Q 253.08 223.38 253.45 224.15
  Q 253.83 224.96 254.10 224.11
  Q 254.37 223.25 253.39 222.37
  A 1.38 1.37 -47.1 0 0 251.49 222.45
  Q 250.59 223.39 249.61 222.66
  Q 249.31 222.44 249.33 222.81
  Q 249.48 225.30 249.09 227.44
  Q 249.01 227.88 249.71 227.93
  A 0.56 0.56 0.0 0 0 250.31 227.29
  Q 250.00 225.10 251.10 223.53
  A 1.10 1.09 -62.4 0 1 252.35 223.13"
/>
<path stroke="#d1adff" vector-effect="non-scaling-stroke" d="
  M 256.5193 116.3198
  A 0.30 0.30 0.0 0 0 256.2198 116.0193
  L 245.5598 116.0007
  A 0.30 0.30 0.0 0 0 245.2593 116.3002
  L 245.2407 126.9402
  A 0.30 0.30 0.0 0 0 245.5402 127.2407
  L 256.2002 127.2593
  A 0.30 0.30 0.0 0 0 256.5007 126.9598
  L 256.5193 116.3198"
/>
<path stroke="#d1adff" vector-effect="non-scaling-stroke" d="
  M 200.16 186.43
  L 200.13 194.80
  Q 200.13 194.99 200.33 194.99
  L 208.23 195.00
  Q 208.53 195.00 208.53 194.70
  Q 208.43 175.92 208.52 158.65
  Q 208.60 145.73 197.71 140.35
  C 185.85 134.50 170.54 137.37 159.17 143.71
  Q 158.30 144.20 158.82 145.06
  L 161.66 149.72
  Q 162.20 150.62 163.05 150.00
  Q 164.17 149.19 165.56 148.52
  Q 176.00 143.52 185.52 144.40
  C 192.96 145.09 199.92 149.53 200.14 157.62
  Q 200.20 159.54 200.14 161.50
  A 0.64 0.64 0.0 0 1 199.40 162.12
  C 186.62 160.15 157.07 159.38 155.01 177.76
  C 153.97 186.97 159.26 193.52 168.11 195.40
  Q 187.23 199.47 199.67 186.23
  Q 200.17 185.71 200.16 186.43"
/>
<path stroke="#d1adff" vector-effect="non-scaling-stroke" d="
  M 246.75 187.52
  A 0.37 0.37 0.0 0 1 246.38 187.89
  L 234.38 187.87
  A 0.37 0.37 0.0 0 0 234.01 188.24
  L 234.00 194.63
  A 0.37 0.37 0.0 0 0 234.37 195.00
  L 267.38 195.00
  A 0.37 0.37 0.0 0 0 267.75 194.63
  L 267.75 188.23
  A 0.37 0.37 0.0 0 0 267.38 187.86
  L 255.51 187.87
  A 0.37 0.37 0.0 0 1 255.14 187.50
  L 255.15 138.99
  A 0.37 0.37 0.0 0 0 254.78 138.62
  L 234.37 138.61
  A 0.37 0.37 0.0 0 0 234.00 138.98
  L 234.01 145.26
  A 0.37 0.37 0.0 0 0 234.38 145.63
  L 246.38 145.63
  A 0.37 0.37 0.0 0 1 246.75 146.00
  L 246.75 187.52"
/>
<path stroke="#d1adff" vector-effect="non-scaling-stroke" d="
  M 199.20 177.71
  Q 200.71 174.66 200.08 169.47
  Q 200.01 168.90 199.45 168.84
  C 190.84 167.88 165.52 166.13 163.33 178.04
  C 162.40 183.08 166.56 187.61 171.17 188.59
  C 181.60 190.82 194.38 187.45 199.20 177.71"
/>
<path stroke="#9f9f9f" vector-effect="non-scaling-stroke" d="
  M 196.65 171.56
  C 190.10 171.02 171.00 169.97 166.99 176.81
  C 163.34 183.05 171.17 186.13 176.23 186.30
  Q 186.68 186.65 193.64 180.25
  Q 197.37 176.82 197.23 172.17
  Q 197.21 171.60 196.65 171.56"
/>
<path stroke="#9f9f9f" vector-effect="non-scaling-stroke" d="
  M 227.73 214.97
  L 229.72 215.17
  A 0.74 0.74 0.0 0 0 230.53 214.50
  L 230.65 213.20
  A 2.03 1.70 -84.5 0 0 229.16 211.01
  L 229.08 211.01
  A 2.03 1.70 -84.5 0 0 227.19 212.86
  L 227.06 214.17
  A 0.74 0.74 0.0 0 0 227.73 214.97"
/>
<path stroke="#9f9f9f" vector-effect="non-scaling-stroke" d="
  M 234.16 213.29
  L 237.13 213.07
  A 0.24 0.24 0.0 0 0 237.36 212.81
  L 237.34 212.66
  A 1.73 1.70 85.8 0 0 235.52 211.06
  L 235.46 211.07
  A 1.73 1.70 85.8 0 0 233.89 212.91
  L 233.90 213.06
  A 0.24 0.24 0.0 0 0 234.16 213.29"
/>
<path stroke="#9f9f9f" vector-effect="non-scaling-stroke" d="
  M 191.61 226.97
  L 193.64 227.22
  A 0.75 0.75 0.0 0 0 194.47 226.57
  L 194.62 225.41
  A 2.25 1.71 -83.0 0 0 193.19 222.97
  L 193.07 222.96
  A 2.25 1.71 -83.0 0 0 191.10 224.98
  L 190.96 226.13
  A 0.75 0.75 0.0 0 0 191.61 226.97"
/>
<path stroke="#9f9f9f" vector-effect="non-scaling-stroke" d="
  M 198.16 225.24
  L 200.93 224.93
  A 0.25 0.25 0.0 0 0 201.15 224.66
  L 201.13 224.50
  A 1.69 1.51 83.7 0 0 199.44 222.98
  L 199.19 223.01
  A 1.69 1.51 83.7 0 0 197.87 224.86
  L 197.89 225.02
  A 0.25 0.25 0.0 0 0 198.16 225.24"
/>
<path stroke="#9f9f9f" vector-effect="non-scaling-stroke" d="
  M 211.26 225.30
  L 214.15 225.05
  A 0.24 0.24 0.0 0 0 214.37 224.79
  L 214.35 224.62
  A 1.71 1.55 84.9 0 0 212.66 223.05
  L 212.38 223.08
  A 1.71 1.55 84.9 0 0 210.98 224.92
  L 211.00 225.09
  A 0.24 0.24 0.0 0 0 211.26 225.30"
/>
<path stroke="#9f9f9f" vector-effect="non-scaling-stroke" d="
  M 245.2207 227.3662
  A 2.18 2.01 93.4 0 0 247.3565 225.3092
  A 2.18 2.01 93.4 0 0 245.4793 223.0138
  A 2.18 2.01 93.4 0 0 243.3435 225.0708
  A 2.18 2.01 93.4 0 0 245.2207 227.3662"
/>
</g>
<path fill="#3e3e3e" d="
  M 332.00 261.27
  A 0.73 0.73 0.0 0 1 331.27 262.00
  L 100.73 262.00
  A 0.73 0.73 0.0 0 1 100.00 261.27
  L 100.00 49.73
  A 0.73 0.73 0.0 0 1 100.73 49.00
  L 331.27 49.00
  A 0.73 0.73 0.0 0 1 332.00 49.73
  L 332.00 261.27
  Z
  M 259.50 113.30
  A 0.33 0.33 0.0 0 0 259.17 112.97
  L 242.57 112.97
  A 0.33 0.33 0.0 0 0 242.24 113.30
  L 242.24 129.92
  A 0.33 0.33 0.0 0 0 242.57 130.25
  L 259.17 130.25
  A 0.33 0.33 0.0 0 0 259.50 129.92
  L 259.50 113.30
  Z
  M 197.17 193.30
  L 197.12 197.43
  Q 197.11 198.00 197.68 198.00
  L 210.96 198.00
  A 0.55 0.55 0.0 0 0 211.51 197.45
  Q 211.48 178.10 211.50 158.26
  C 211.52 139.14 194.08 132.70 177.35 134.60
  Q 165.39 135.95 154.69 143.05
  Q 154.27 143.33 154.53 143.76
  L 160.81 154.16
  Q 161.14 154.71 161.67 154.35
  Q 171.42 147.69 181.96 147.27
  C 188.98 146.98 197.13 149.98 197.19 158.17
  Q 197.19 158.73 196.64 158.67
  C 181.45 157.10 151.97 157.79 151.88 179.82
  C 151.82 193.69 163.47 199.16 175.70 199.38
  Q 187.31 199.59 196.60 193.00
  Q 197.18 192.59 197.17 193.30
  Z
  M 270.74 185.19
  A 0.31 0.31 0.0 0 0 270.43 184.88
  L 258.40 184.87
  A 0.31 0.31 0.0 0 1 258.09 184.56
  L 258.10 135.99
  A 0.31 0.31 0.0 0 0 257.79 135.68
  L 231.27 135.64
  A 0.31 0.31 0.0 0 0 230.96 135.95
  L 231.01 148.32
  A 0.31 0.31 0.0 0 0 231.32 148.63
  L 243.46 148.63
  A 0.31 0.31 0.0 0 1 243.77 148.94
  L 243.76 184.52
  A 0.31 0.31 0.0 0 1 243.45 184.83
  L 231.32 184.84
  A 0.31 0.31 0.0 0 0 231.01 185.15
  L 230.92 197.69
  A 0.31 0.31 0.0 0 0 231.23 198.00
  L 270.46 198.00
  A 0.31 0.31 0.0 0 0 270.77 197.69
  L 270.74 185.19
  Z
  M 208.93 209.16
  Q 208.94 209.34 209.05 209.51
  Q 209.27 209.88 209.46 209.49
  Q 209.69 209.02 209.66 208.53
  Q 209.65 208.34 209.48 208.24
  Q 209.27 208.11 209.04 208.15
  Q 208.76 208.21 208.76 208.49
  Q 208.75 208.75 208.88 208.97
  Q 208.93 209.06 208.93 209.16
  Z
  M 210.00 214.37
  Q 210.13 212.43 209.37 210.44
  A 0.45 0.44 53.9 0 0 208.61 210.32
  Q 208.49 210.47 208.30 210.53
  Q 207.58 210.77 208.28 211.05
  Q 209.16 211.41 209.11 212.35
  Q 209.07 213.03 209.18 213.71
  Q 209.35 214.76 208.45 215.28
  Q 207.54 215.80 208.57 215.98
  Q 209.50 216.13 210.47 215.97
  Q 210.94 215.89 210.76 215.44
  Q 210.69 215.28 210.52 215.21
  Q 209.96 214.98 210.00 214.37
  Z
  M 214.41 211.24
  L 214.82 211.24
  Q 215.43 211.25 215.43 211.85
  L 215.42 215.59
  Q 215.42 215.80 215.63 215.81
  L 215.91 215.81
  Q 216.20 215.82 216.19 215.53
  Q 216.11 213.27 216.46 211.99
  Q 216.80 210.76 215.54 210.54
  Q 214.82 210.41 214.45 210.35
  A 1.21 1.20 5.3 0 0 213.04 211.51
  L 212.97 215.73
  Q 212.96 216.00 213.23 215.99
  L 213.61 215.99
  Q 213.96 215.99 213.97 215.64
  L 214.12 211.51
  Q 214.13 211.24 214.41 211.24
  Z
  M 217.38 211.06
  C 218.49 211.92 218.15 214.37 217.95 215.55
  Q 217.92 215.75 218.10 215.85
  Q 218.24 215.93 218.45 215.83
  Q 218.63 215.74 218.67 215.54
  Q 219.18 212.84 218.22 210.64
  Q 218.08 210.31 217.72 210.28
  Q 217.52 210.26 217.37 210.38
  Q 216.94 210.73 217.38 211.06
  Z
  M 220.76 214.20
  Q 221.47 213.38 222.63 213.49
  Q 223.06 213.53 223.06 213.10
  L 223.07 212.84
  Q 223.07 212.76 222.99 212.76
  Q 221.87 212.77 220.76 213.17
  Q 220.11 213.39 219.89 214.10
  Q 219.61 214.95 220.16 215.63
  A 1.38 1.38 0.0 0 0 221.34 216.13
  L 224.21 215.90
  Q 225.01 215.84 224.98 215.03
  L 224.85 211.92
  A 1.12 1.11 -74.1 0 0 224.38 211.07
  Q 222.05 209.45 220.61 211.18
  Q 219.76 212.21 220.89 211.49
  Q 222.63 210.41 223.69 211.59
  Q 224.27 212.23 223.77 213.01
  Q 223.54 213.37 223.73 213.75
  Q 223.99 214.26 223.98 214.83
  Q 223.97 215.40 223.41 215.43
  Q 221.98 215.52 220.98 215.10
  Q 220.25 214.80 220.76 214.20
  Z
  M 230.55 216.51
  Q 229.55 218.28 227.33 217.10
  Q 227.04 216.95 226.88 217.22
  L 226.75 217.44
  A 0.27 0.27 0.0 0 0 226.87 217.82
  Q 229.56 219.01 231.11 217.28
  A 1.58 1.58 0.0 0 0 231.51 216.23
  L 231.50 211.22
  Q 231.50 210.63 230.91 210.67
  Q 230.16 210.72 229.48 210.40
  A 1.34 1.33 46.5 0 0 228.45 210.37
  Q 226.30 211.20 226.25 212.99
  Q 226.17 216.51 230.06 215.81
  Q 231.05 215.63 230.55 216.51
  Z
  M 234.48 213.77
  L 236.84 213.65
  Q 239.36 213.52 237.73 211.59
  C 234.22 207.42 230.62 214.49 234.73 215.94
  Q 236.84 216.69 237.69 215.12
  Q 238.10 214.36 237.36 214.81
  Q 235.86 215.71 234.52 215.15
  Q 234.03 214.95 233.95 214.44
  Q 233.84 213.80 234.48 213.77
  Z
  M 239.08 221.73
  Q 239.39 220.99 239.09 220.33
  Q 238.86 219.80 238.57 220.30
  Q 238.21 220.96 238.60 221.75
  Q 238.86 222.27 239.08 221.73
  Z
  M 231.72 221.97
  Q 231.91 221.11 231.38 220.58
  Q 230.53 219.72 230.82 220.90
  Q 231.18 222.37 229.77 222.45
  Q 229.47 222.46 229.52 222.85
  Q 229.57 223.26 229.96 223.13
  Q 230.35 222.99 230.68 223.44
  A 0.68 0.67 -59.9 0 1 230.80 223.91
  C 230.50 226.13 230.86 228.93 234.06 227.82
  Q 234.80 227.56 234.91 226.81
  Q 235.11 225.55 234.34 226.57
  Q 233.57 227.58 232.50 227.28
  Q 231.64 227.04 231.66 226.16
  L 231.69 223.46
  Q 231.71 222.55 232.42 223.11
  Q 232.98 223.54 233.51 223.12
  Q 234.04 222.71 233.43 222.44
  Q 232.85 222.18 232.31 222.44
  Q 231.54 222.81 231.72 221.97
  Z
  M 194.54 228.55
  Q 193.58 230.30 191.21 229.04
  Q 190.92 228.88 190.84 229.21
  L 190.77 229.53
  Q 190.75 229.63 190.84 229.69
  C 192.84 230.99 195.60 230.29 195.42 227.51
  Q 195.29 225.52 195.44 223.53
  Q 195.48 222.87 194.86 222.65
  Q 192.08 221.66 190.72 223.55
  C 188.97 226.01 191.08 228.38 194.01 227.83
  Q 195.05 227.63 194.54 228.55
  Z
  M 198.44 225.88
  L 201.72 225.63
  Q 202.23 225.59 202.23 225.07
  C 202.19 221.38 196.65 221.20 196.90 225.72
  C 197.05 228.37 200.02 228.66 201.82 227.37
  Q 202.01 227.23 201.88 227.03
  L 201.70 226.75
  Q 201.50 226.42 201.19 226.65
  Q 199.80 227.65 198.39 227.06
  Q 198.09 226.93 197.96 226.62
  Q 197.91 226.50 197.93 226.36
  Q 197.99 225.91 198.44 225.88
  Z
  M 207.74 222.74
  C 206.48 221.54 205.51 222.91 204.17 222.88
  Q 203.62 222.88 203.61 223.43
  L 203.52 227.62
  Q 203.51 228.00 203.88 227.91
  L 204.29 227.82
  Q 204.49 227.78 204.47 227.57
  C 204.34 225.94 204.49 222.37 207.10 223.26
  A 0.93 0.92 9.0 0 1 207.73 224.12
  L 207.77 227.59
  Q 207.78 227.89 208.09 227.89
  L 208.36 227.88
  Q 208.63 227.87 208.62 227.61
  C 208.58 226.12 208.83 223.78 207.74 222.74
  Z
  M 211.79 225.77
  L 214.72 225.53
  Q 215.33 225.48 215.30 224.87
  C 215.20 222.63 212.56 221.49 210.96 222.99
  C 208.17 225.61 211.05 229.56 214.80 227.51
  Q 214.96 227.42 214.86 227.26
  L 214.71 227.01
  Q 214.51 226.69 214.20 226.90
  Q 212.51 228.02 211.38 226.88
  Q 210.39 225.88 211.79 225.77
  Z
  M 217.25 227.02
  L 216.92 227.19
  Q 215.82 227.75 217.05 227.81
  L 219.14 227.91
  Q 219.78 227.95 219.45 227.39
  Q 219.32 227.17 219.10 227.12
  Q 218.57 226.99 218.49 226.46
  Q 218.10 224.01 220.05 223.26
  Q 220.47 223.10 220.91 223.16
  Q 221.07 223.19 221.23 223.22
  Q 221.82 223.34 221.60 222.79
  Q 221.51 222.55 221.21 222.48
  Q 220.78 222.38 220.37 222.51
  Q 218.64 223.01 217.01 222.33
  Q 216.79 222.25 216.58 222.39
  Q 216.09 222.71 216.62 222.96
  L 217.26 223.26
  Q 217.83 223.53 217.73 224.15
  Q 217.55 225.21 217.69 226.17
  Q 217.78 226.75 217.25 227.02
  Z
  M 224.11 226.05
  Q 225.01 225.42 226.25 225.40
  A 0.14 0.14 0.0 0 0 226.39 225.26
  L 226.39 225.01
  Q 226.39 224.86 226.23 224.84
  Q 224.75 224.71 223.61 225.44
  A 1.35 1.35 0.0 0 0 223.91 227.86
  Q 225.61 228.43 227.68 227.74
  Q 228.17 227.58 228.14 227.06
  L 227.96 223.72
  Q 227.93 223.19 227.48 222.89
  Q 225.38 221.53 223.68 223.08
  Q 222.70 223.98 223.91 223.42
  Q 226.92 222.02 227.12 224.51
  Q 227.19 225.37 227.12 226.40
  Q 227.07 227.07 226.43 227.29
  Q 225.19 227.73 224.13 227.03
  A 0.59 0.59 0.0 0 1 224.11 226.05
  Z
  M 239.22 226.49
  L 239.26 223.49
  Q 239.27 222.91 238.72 222.72
  L 238.03 222.48
  Q 236.98 222.13 237.65 223.01
  Q 239.32 225.23 237.66 227.37
  Q 237.18 227.99 237.97 227.96
  L 240.04 227.88
  Q 240.72 227.86 240.28 227.34
  Q 240.10 227.12 239.86 227.12
  Q 239.21 227.14 239.22 226.49
  Z
  M 248.32 225.29
  A 2.91 2.91 0.0 0 0 245.41 222.38
  A 2.91 2.91 0.0 0 0 242.50 225.29
  A 2.91 2.91 0.0 0 0 245.41 228.20
  A 2.91 2.91 0.0 0 0 248.32 225.29
  Z
  M 252.35 223.13
  Q 253.08 223.38 253.45 224.15
  Q 253.83 224.96 254.10 224.11
  Q 254.37 223.25 253.39 222.37
  A 1.38 1.37 -47.1 0 0 251.49 222.45
  Q 250.59 223.39 249.61 222.66
  Q 249.31 222.44 249.33 222.81
  Q 249.48 225.30 249.09 227.44
  Q 249.01 227.88 249.71 227.93
  A 0.56 0.56 0.0 0 0 250.31 227.29
  Q 250.00 225.10 251.10 223.53
  A 1.10 1.09 -62.4 0 1 252.35 223.13
  Z"
/>
<rect fill="#7b1ef1" x="532.50" y="86.00" width="18.50" height="18.62" rx="0.37"/>
<path fill="#ffffff" d="
  M 259.50 129.92
  A 0.33 0.33 0.0 0 1 259.17 130.25
  L 242.57 130.25
  A 0.33 0.33 0.0 0 1 242.24 129.92
  L 242.24 113.30
  A 0.33 0.33 0.0 0 1 242.57 112.97
  L 259.17 112.97
  A 0.33 0.33 0.0 0 1 259.50 113.30
  L 259.50 129.92
  Z
  M 256.5193 116.3198
  A 0.30 0.30 0.0 0 0 256.2198 116.0193
  L 245.5598 116.0007
  A 0.30 0.30 0.0 0 0 245.2593 116.3002
  L 245.2407 126.9402
  A 0.30 0.30 0.0 0 0 245.5402 127.2407
  L 256.2002 127.2593
  A 0.30 0.30 0.0 0 0 256.5007 126.9598
  L 256.5193 116.3198
  Z"
/>
<rect fill="#a25aff" x="-5.63" y="-5.62" transform="translate(250.88,121.63) rotate(0.1)" width="11.26" height="11.24" rx="0.30"/>
<path fill="#7b1ef1" d="
  M 457.84 201.14
  Q 437.70 223.09 406.44 216.86
  C 394.92 214.57 385.70 207.50 384.11 195.38
  C 379.11 157.15 435.21 158.45 457.46 161.89
  Q 458.14 162.00 458.18 161.31
  Q 458.57 155.59 457.84 151.08
  C 455.56 137.10 440.10 131.90 427.31 132.60
  Q 410.88 133.50 396.16 142.48
  Q 395.69 142.77 395.40 142.29
  L 389.76 133.01
  Q 389.45 132.50 389.97 132.20
  Q 407.46 122.06 426.65 121.05
  C 444.76 120.09 464.76 126.09 470.60 144.71
  Q 472.19 149.76 472.08 163.08
  Q 471.88 189.56 472.05 215.44
  Q 472.05 216.00 471.49 216.00
  L 458.75 216.00
  Q 458.25 216.00 458.25 215.50
  L 458.25 201.30
  Q 458.25 200.70 457.84 201.14
  Z
  M 407.41 204.34
  C 416.28 207.97 428.42 207.10 436.78 204.02
  C 445.38 200.86 453.90 194.71 457.35 186.09
  C 458.84 182.37 458.13 177.81 458.28 173.79
  Q 458.30 173.22 457.73 173.11
  Q 454.77 172.58 451.56 172.38
  C 438.67 171.58 400.64 169.35 397.64 188.47
  C 396.53 195.50 401.28 201.82 407.41 204.34
  Z"
/>
<path fill="#5201ba" d="
  M 620.76 135.09
  C 624.53 124.83 631.03 119.68 642.63 121.26
  Q 651.83 122.52 656.41 131.82
  Q 656.89 132.79 657.18 133.82
  Q 657.43 134.73 657.88 133.90
  C 662.20 125.87 668.18 120.64 677.79 120.97
  C 694.39 121.53 699.51 133.54 699.50 148.25
  Q 699.49 181.28 699.51 215.31
  Q 699.51 216.00 698.82 216.00
  L 686.52 216.00
  Q 685.86 216.00 685.86 215.34
  Q 685.91 181.25 685.86 147.19
  C 685.85 140.50 682.60 131.64 674.07 132.54
  Q 666.73 133.31 663.70 140.52
  Q 660.16 148.96 660.08 160.36
  Q 659.91 186.64 660.03 215.44
  A 0.56 0.55 -90.0 0 1 659.48 216.00
  L 646.79 216.00
  Q 646.24 216.00 646.24 215.45
  Q 646.28 179.17 646.23 147.56
  C 646.22 141.51 643.71 133.43 636.79 132.64
  C 622.63 131.02 620.49 149.92 620.44 159.55
  Q 620.30 187.40 620.40 215.41
  A 0.59 0.59 0.0 0 1 619.81 216.00
  L 607.25 216.00
  Q 606.75 216.00 606.75 215.50
  L 606.75 123.69
  Q 606.75 123.12 607.31 123.12
  L 619.76 123.13
  Q 620.39 123.13 620.38 123.76
  L 620.35 135.01
  Q 620.35 136.20 620.76 135.09
  Z"
/>
<path fill="#430197" d="
  M 791.64 201.28
  C 790.01 203.05 788.42 204.93 786.58 206.45
  C 772.46 218.12 754.21 220.99 736.70 215.81
  C 724.80 212.30 717.84 203.37 717.85 190.83
  C 717.87 169.92 738.60 162.88 755.66 161.09
  C 767.54 159.84 779.54 160.19 791.55 161.83
  Q 792.31 161.94 792.31 161.17
  C 792.38 152.12 792.48 145.04 784.50 138.86
  C 769.40 127.16 745.10 133.43 730.25 142.50
  Q 729.76 142.80 729.46 142.31
  L 723.83 132.94
  A 0.50 0.50 0.0 0 1 724.01 132.25
  Q 741.38 122.06 760.91 121.06
  C 779.20 120.12 799.65 126.45 804.84 145.41
  Q 806.15 150.20 806.08 158.80
  Q 805.89 186.06 806.03 215.41
  Q 806.04 216.00 805.45 216.00
  L 792.75 216.00
  A 0.50 0.50 0.0 0 1 792.25 215.50
  L 792.25 201.52
  Q 792.25 200.61 791.64 201.28
  Z
  M 744.02 205.27
  C 760.42 209.75 780.37 203.88 789.52 189.86
  C 790.89 187.76 792.14 185.17 792.20 182.67
  Q 792.31 178.29 792.24 173.75
  Q 792.24 173.19 791.68 173.10
  Q 788.71 172.58 785.76 172.39
  Q 774.53 171.69 763.59 172.11
  C 755.06 172.44 746.23 173.85 738.87 178.37
  C 731.19 183.09 728.88 192.50 735.05 199.53
  Q 738.85 203.87 744.02 205.27
  Z"
/>
<path fill="#360179" d="
  M 903.64 130.74
  L 903.62 123.75
  Q 903.62 123.13 904.24 123.13
  L 916.94 123.13
  A 0.48 0.48 0.0 0 1 917.42 123.61
  Q 917.26 165.36 917.47 207.65
  Q 917.54 220.93 915.98 226.87
  Q 912.66 239.58 900.97 247.66
  C 890.92 254.61 876.95 256.43 864.48 254.81
  C 851.48 253.12 840.43 246.10 833.02 235.56
  A 0.46 0.46 0.0 0 1 833.12 234.93
  L 841.80 228.22
  Q 842.26 227.87 842.60 228.34
  C 851.93 240.94 867.77 245.49 882.79 242.04
  Q 900.08 238.06 903.15 221.69
  C 904.06 216.82 903.51 211.08 903.65 206.00
  A 0.26 0.26 0.0 0 0 903.21 205.80
  C 891.17 216.43 876.23 218.24 860.86 214.40
  Q 845.23 210.49 836.54 197.40
  C 828.75 185.66 827.60 168.35 831.04 154.98
  Q 835.36 138.21 848.24 129.12
  C 857.12 122.85 868.64 120.27 879.45 121.13
  C 887.41 121.77 896.89 125.21 903.02 131.01
  Q 903.64 131.60 903.64 130.74
  Z
  M 890.09 135.15
  C 882.50 132.17 872.93 131.55 865.21 134.04
  C 846.53 140.07 840.73 160.04 843.60 178.23
  C 845.70 191.55 853.79 201.38 867.46 203.80
  Q 888.72 207.56 903.05 192.92
  A 2.04 2.00 -23.4 0 0 903.62 191.52
  L 903.62 145.23
  Q 903.62 144.68 903.24 144.28
  Q 897.42 138.04 890.09 135.15
  Z"
/>
<path fill="#360179" d="
  M 954.56 175.06
  C 956.72 196.42 973.24 208.84 994.34 206.37
  Q 1010.70 204.46 1020.10 192.04
  Q 1020.30 191.77 1020.57 191.96
  L 1029.43 198.03
  A 0.44 0.43 -54.9 0 1 1029.53 198.65
  Q 1019.20 212.43 1005.53 216.20
  C 975.60 224.44 944.02 208.90 940.75 175.99
  C 938.35 151.78 948.91 129.98 973.28 122.81
  C 982.86 119.99 995.78 120.32 1005.44 123.87
  C 1027.03 131.79 1034.59 152.40 1034.63 173.81
  Q 1034.63 174.37 1034.07 174.37
  L 955.19 174.37
  Q 954.49 174.37 954.56 175.06
  Z
  M 1003.44 136.15
  Q 994.81 131.67 983.86 132.73
  C 968.03 134.27 956.83 146.66 954.72 162.11
  Q 954.63 162.75 955.27 162.75
  L 1019.53 162.76
  A 0.64 0.64 0.0 0 0 1020.16 162.01
  C 1018.21 150.98 1013.71 141.49 1003.44 136.15
  Z"
/>
<path fill="#1d0141" d="
  M 1051.82 205.47
  A 0.92 0.92 0.0 0 1 1051.47 204.24
  L 1057.04 193.76
  Q 1057.34 193.19 1057.88 193.53
  Q 1066.48 198.99 1075.36 202.37
  Q 1093.32 209.22 1113.73 205.17
  C 1120.37 203.86 1127.20 200.66 1128.63 193.46
  Q 1130.12 185.92 1123.36 182.20
  C 1118.80 179.70 1113.05 178.33 1107.89 177.64
  Q 1093.03 175.65 1081.26 173.41
  C 1072.74 171.79 1062.59 167.56 1057.72 160.19
  Q 1054.45 155.22 1054.69 147.08
  C 1055.09 133.14 1067.88 125.43 1080.58 122.78
  C 1099.48 118.83 1120.58 120.88 1136.97 131.59
  Q 1137.44 131.90 1137.19 132.40
  L 1132.31 142.04
  Q 1132.01 142.63 1131.47 142.25
  Q 1116.24 131.57 1094.97 132.64
  C 1085.83 133.10 1066.69 136.48 1068.47 149.77
  C 1069.47 157.26 1081.61 159.73 1087.49 160.60
  Q 1098.88 162.29 1109.61 163.99
  C 1121.22 165.84 1139.06 170.48 1141.82 184.00
  C 1146.51 206.86 1126.73 215.74 1108.24 217.70
  Q 1078.13 220.88 1051.82 205.47
  Z"
/>
<path fill="#7b1ef1" d="
  M 548.98 204.37
  L 569.25 204.38
  A 0.36 0.36 0.0 0 1 569.61 204.74
  L 569.64 215.64
  A 0.36 0.36 0.0 0 1 569.28 216.00
  L 514.23 216.00
  A 0.36 0.36 0.0 0 1 513.87 215.64
  L 513.88 204.73
  A 0.36 0.36 0.0 0 1 514.24 204.37
  L 534.51 204.38
  A 0.36 0.36 0.0 0 0 534.87 204.02
  L 534.88 135.22
  A 0.36 0.36 0.0 0 0 534.52 134.86
  L 514.23 134.88
  A 0.36 0.36 0.0 0 1 513.87 134.52
  L 513.87 123.49
  A 0.36 0.36 0.0 0 1 514.23 123.13
  L 548.26 123.14
  A 0.36 0.36 0.0 0 1 548.62 123.50
  L 548.62 204.01
  A 0.36 0.36 0.0 0 0 548.98 204.37
  Z"
/>
<path fill="#ffffff" d="
  M 196.60 193.00
  Q 187.31 199.59 175.70 199.38
  C 163.47 199.16 151.82 193.69 151.88 179.82
  C 151.97 157.79 181.45 157.10 196.64 158.67
  Q 197.19 158.73 197.19 158.17
  C 197.13 149.98 188.98 146.98 181.96 147.27
  Q 171.42 147.69 161.67 154.35
  Q 161.14 154.71 160.81 154.16
  L 154.53 143.76
  Q 154.27 143.33 154.69 143.05
  Q 165.39 135.95 177.35 134.60
  C 194.08 132.70 211.52 139.14 211.50 158.26
  Q 211.48 178.10 211.51 197.45
  A 0.55 0.55 0.0 0 1 210.96 198.00
  L 197.68 198.00
  Q 197.11 198.00 197.12 197.43
  L 197.17 193.30
  Q 197.18 192.59 196.60 193.00
  Z
  M 200.16 186.43
  L 200.13 194.80
  Q 200.13 194.99 200.33 194.99
  L 208.23 195.00
  Q 208.53 195.00 208.53 194.70
  Q 208.43 175.92 208.52 158.65
  Q 208.60 145.73 197.71 140.35
  C 185.85 134.50 170.54 137.37 159.17 143.71
  Q 158.30 144.20 158.82 145.06
  L 161.66 149.72
  Q 162.20 150.62 163.05 150.00
  Q 164.17 149.19 165.56 148.52
  Q 176.00 143.52 185.52 144.40
  C 192.96 145.09 199.92 149.53 200.14 157.62
  Q 200.20 159.54 200.14 161.50
  A 0.64 0.64 0.0 0 1 199.40 162.12
  C 186.62 160.15 157.07 159.38 155.01 177.76
  C 153.97 186.97 159.26 193.52 168.11 195.40
  Q 187.23 199.47 199.67 186.23
  Q 200.17 185.71 200.16 186.43
  Z"
/>
<path fill="#ffffff" d="
  M 270.74 185.19
  L 270.77 197.69
  A 0.31 0.31 0.0 0 1 270.46 198.00
  L 231.23 198.00
  A 0.31 0.31 0.0 0 1 230.92 197.69
  L 231.01 185.15
  A 0.31 0.31 0.0 0 1 231.32 184.84
  L 243.45 184.83
  A 0.31 0.31 0.0 0 0 243.76 184.52
  L 243.77 148.94
  A 0.31 0.31 0.0 0 0 243.46 148.63
  L 231.32 148.63
  A 0.31 0.31 0.0 0 1 231.01 148.32
  L 230.96 135.95
  A 0.31 0.31 0.0 0 1 231.27 135.64
  L 257.79 135.68
  A 0.31 0.31 0.0 0 1 258.10 135.99
  L 258.09 184.56
  A 0.31 0.31 0.0 0 0 258.40 184.87
  L 270.43 184.88
  A 0.31 0.31 0.0 0 1 270.74 185.19
  Z
  M 246.75 187.52
  A 0.37 0.37 0.0 0 1 246.38 187.89
  L 234.38 187.87
  A 0.37 0.37 0.0 0 0 234.01 188.24
  L 234.00 194.63
  A 0.37 0.37 0.0 0 0 234.37 195.00
  L 267.38 195.00
  A 0.37 0.37 0.0 0 0 267.75 194.63
  L 267.75 188.23
  A 0.37 0.37 0.0 0 0 267.38 187.86
  L 255.51 187.87
  A 0.37 0.37 0.0 0 1 255.14 187.50
  L 255.15 138.99
  A 0.37 0.37 0.0 0 0 254.78 138.62
  L 234.37 138.61
  A 0.37 0.37 0.0 0 0 234.00 138.98
  L 234.01 145.26
  A 0.37 0.37 0.0 0 0 234.38 145.63
  L 246.38 145.63
  A 0.37 0.37 0.0 0 1 246.75 146.00
  L 246.75 187.52
  Z"
/>
<path fill="#a25aff" d="
  M 199.67 186.23
  Q 187.23 199.47 168.11 195.40
  C 159.26 193.52 153.97 186.97 155.01 177.76
  C 157.07 159.38 186.62 160.15 199.40 162.12
  A 0.64 0.64 0.0 0 0 200.14 161.50
  Q 200.20 159.54 200.14 157.62
  C 199.92 149.53 192.96 145.09 185.52 144.40
  Q 176.00 143.52 165.56 148.52
  Q 164.17 149.19 163.05 150.00
  Q 162.20 150.62 161.66 149.72
  L 158.82 145.06
  Q 158.30 144.20 159.17 143.71
  C 170.54 137.37 185.85 134.50 197.71 140.35
  Q 208.60 145.73 208.52 158.65
  Q 208.43 175.92 208.53 194.70
  Q 208.53 195.00 208.23 195.00
  L 200.33 194.99
  Q 200.13 194.99 200.13 194.80
  L 200.16 186.43
  Q 200.17 185.71 199.67 186.23
  Z
  M 199.20 177.71
  Q 200.71 174.66 200.08 169.47
  Q 200.01 168.90 199.45 168.84
  C 190.84 167.88 165.52 166.13 163.33 178.04
  C 162.40 183.08 166.56 187.61 171.17 188.59
  C 181.60 190.82 194.38 187.45 199.20 177.71
  Z"
/>
<path fill="#a25aff" d="
  M 246.75 187.52
  L 246.75 146.00
  A 0.37 0.37 0.0 0 0 246.38 145.63
  L 234.38 145.63
  A 0.37 0.37 0.0 0 1 234.01 145.26
  L 234.00 138.98
  A 0.37 0.37 0.0 0 1 234.37 138.61
  L 254.78 138.62
  A 0.37 0.37 0.0 0 1 255.15 138.99
  L 255.14 187.50
  A 0.37 0.37 0.0 0 0 255.51 187.87
  L 267.38 187.86
  A 0.37 0.37 0.0 0 1 267.75 188.23
  L 267.75 194.63
  A 0.37 0.37 0.0 0 1 267.38 195.00
  L 234.37 195.00
  A 0.37 0.37 0.0 0 1 234.00 194.63
  L 234.01 188.24
  A 0.37 0.37 0.0 0 1 234.38 187.87
  L 246.38 187.89
  A 0.37 0.37 0.0 0 0 246.75 187.52
  Z"
/>
<path fill="#ffffff" d="
  M 199.20 177.71
  C 194.38 187.45 181.60 190.82 171.17 188.59
  C 166.56 187.61 162.40 183.08 163.33 178.04
  C 165.52 166.13 190.84 167.88 199.45 168.84
  Q 200.01 168.90 200.08 169.47
  Q 200.71 174.66 199.20 177.71
  Z
  M 196.65 171.56
  C 190.10 171.02 171.00 169.97 166.99 176.81
  C 163.34 183.05 171.17 186.13 176.23 186.30
  Q 186.68 186.65 193.64 180.25
  Q 197.37 176.82 197.23 172.17
  Q 197.21 171.60 196.65 171.56
  Z"
/>
<path fill="#3e3e3e" d="
  M 166.99 176.81
  C 171.00 169.97 190.10 171.02 196.65 171.56
  Q 197.21 171.60 197.23 172.17
  Q 197.37 176.82 193.64 180.25
  Q 186.68 186.65 176.23 186.30
  C 171.17 186.13 163.34 183.05 166.99 176.81
  Z"
/>
<path fill="#ffffff" d="
  M 208.88 208.97
  Q 208.75 208.75 208.76 208.49
  Q 208.76 208.21 209.04 208.15
  Q 209.27 208.11 209.48 208.24
  Q 209.65 208.34 209.66 208.53
  Q 209.69 209.02 209.46 209.49
  Q 209.27 209.88 209.05 209.51
  Q 208.94 209.34 208.93 209.16
  Q 208.93 209.06 208.88 208.97
  Z"
/>
<path fill="#ffffff" d="
  M 210.52 215.21
  Q 210.69 215.28 210.76 215.44
  Q 210.94 215.89 210.47 215.97
  Q 209.50 216.13 208.57 215.98
  Q 207.54 215.80 208.45 215.28
  Q 209.35 214.76 209.18 213.71
  Q 209.07 213.03 209.11 212.35
  Q 209.16 211.41 208.28 211.05
  Q 207.58 210.77 208.30 210.53
  Q 208.49 210.47 208.61 210.32
  A 0.45 0.44 53.9 0 1 209.37 210.44
  Q 210.13 212.43 210.00 214.37
  Q 209.96 214.98 210.52 215.21
  Z"
/>
<path fill="#ffffff" d="
  M 214.12 211.51
  L 213.97 215.64
  Q 213.96 215.99 213.61 215.99
  L 213.23 215.99
  Q 212.96 216.00 212.97 215.73
  L 213.04 211.51
  A 1.21 1.20 5.3 0 1 214.45 210.35
  Q 214.82 210.41 215.54 210.54
  Q 216.80 210.76 216.46 211.99
  Q 216.11 213.27 216.19 215.53
  Q 216.20 215.82 215.91 215.81
  L 215.63 215.81
  Q 215.42 215.80 215.42 215.59
  L 215.43 211.85
  Q 215.43 211.25 214.82 211.24
  L 214.41 211.24
  Q 214.13 211.24 214.12 211.51
  Z"
/>
<path fill="#ffffff" d="
  M 217.95 215.55
  C 218.15 214.37 218.49 211.92 217.38 211.06
  Q 216.94 210.73 217.37 210.38
  Q 217.52 210.26 217.72 210.28
  Q 218.08 210.31 218.22 210.64
  Q 219.18 212.84 218.67 215.54
  Q 218.63 215.74 218.45 215.83
  Q 218.24 215.93 218.10 215.85
  Q 217.92 215.75 217.95 215.55
  Z"
/>
<path fill="#ffffff" d="
  M 220.98 215.10
  Q 221.98 215.52 223.41 215.43
  Q 223.97 215.40 223.98 214.83
  Q 223.99 214.26 223.73 213.75
  Q 223.54 213.37 223.77 213.01
  Q 224.27 212.23 223.69 211.59
  Q 222.63 210.41 220.89 211.49
  Q 219.76 212.21 220.61 211.18
  Q 222.05 209.45 224.38 211.07
  A 1.12 1.11 -74.1 0 1 224.85 211.92
  L 224.98 215.03
  Q 225.01 215.84 224.21 215.90
  L 221.34 216.13
  A 1.38 1.38 0.0 0 1 220.16 215.63
  Q 219.61 214.95 219.89 214.10
  Q 220.11 213.39 220.76 213.17
  Q 221.87 212.77 222.99 212.76
  Q 223.07 212.76 223.07 212.84
  L 223.06 213.10
  Q 223.06 213.53 222.63 213.49
  Q 221.47 213.38 220.76 214.20
  Q 220.25 214.80 220.98 215.10
  Z"
/>
<path fill="#ffffff" d="
  M 230.55 216.51
  Q 231.05 215.63 230.06 215.81
  Q 226.17 216.51 226.25 212.99
  Q 226.30 211.20 228.45 210.37
  A 1.34 1.33 46.5 0 1 229.48 210.40
  Q 230.16 210.72 230.91 210.67
  Q 231.50 210.63 231.50 211.22
  L 231.51 216.23
  A 1.58 1.58 0.0 0 1 231.11 217.28
  Q 229.56 219.01 226.87 217.82
  A 0.27 0.27 0.0 0 1 226.75 217.44
  L 226.88 217.22
  Q 227.04 216.95 227.33 217.10
  Q 229.55 218.28 230.55 216.51
  Z
  M 227.73 214.97
  L 229.72 215.17
  A 0.74 0.74 0.0 0 0 230.53 214.50
  L 230.65 213.20
  A 2.03 1.70 -84.5 0 0 229.16 211.01
  L 229.08 211.01
  A 2.03 1.70 -84.5 0 0 227.19 212.86
  L 227.06 214.17
  A 0.74 0.74 0.0 0 0 227.73 214.97
  Z"
/>
<path fill="#ffffff" d="
  M 233.95 214.44
  Q 234.03 214.95 234.52 215.15
  Q 235.86 215.71 237.36 214.81
  Q 238.10 214.36 237.69 215.12
  Q 236.84 216.69 234.73 215.94
  C 230.62 214.49 234.22 207.42 237.73 211.59
  Q 239.36 213.52 236.84 213.65
  L 234.48 213.77
  Q 233.84 213.80 233.95 214.44
  Z
  M 234.16 213.29
  L 237.13 213.07
  A 0.24 0.24 0.0 0 0 237.36 212.81
  L 237.34 212.66
  A 1.73 1.70 85.8 0 0 235.52 211.06
  L 235.46 211.07
  A 1.73 1.70 85.8 0 0 233.89 212.91
  L 233.90 213.06
  A 0.24 0.24 0.0 0 0 234.16 213.29
  Z"
/>
<path fill="#3e3e3e" d="
  M 227.73 214.97
  A 0.74 0.74 0.0 0 1 227.06 214.17
  L 227.19 212.86
  A 2.03 1.70 -84.5 0 1 229.08 211.01
  L 229.16 211.01
  A 2.03 1.70 -84.5 0 1 230.65 213.20
  L 230.53 214.50
  A 0.74 0.74 0.0 0 1 229.72 215.17
  L 227.73 214.97
  Z"
/>
<path fill="#3e3e3e" d="
  M 234.16 213.29
  A 0.24 0.24 0.0 0 1 233.90 213.06
  L 233.89 212.91
  A 1.73 1.70 85.8 0 1 235.46 211.07
  L 235.52 211.06
  A 1.73 1.70 85.8 0 1 237.34 212.66
  L 237.36 212.81
  A 0.24 0.24 0.0 0 1 237.13 213.07
  L 234.16 213.29
  Z"
/>
<path fill="#ffffff" d="
  M 238.60 221.75
  Q 238.21 220.96 238.57 220.30
  Q 238.86 219.80 239.09 220.33
  Q 239.39 220.99 239.08 221.73
  Q 238.86 222.27 238.60 221.75
  Z"
/>
<path fill="#ffffff" d="
  M 232.31 222.44
  Q 232.85 222.18 233.43 222.44
  Q 234.04 222.71 233.51 223.12
  Q 232.98 223.54 232.42 223.11
  Q 231.71 222.55 231.69 223.46
  L 231.66 226.16
  Q 231.64 227.04 232.50 227.28
  Q 233.57 227.58 234.34 226.57
  Q 235.11 225.55 234.91 226.81
  Q 234.80 227.56 234.06 227.82
  C 230.86 228.93 230.50 226.13 230.80 223.91
  A 0.68 0.67 -59.9 0 0 230.68 223.44
  Q 230.35 222.99 229.96 223.13
  Q 229.57 223.26 229.52 222.85
  Q 229.47 222.46 229.77 222.45
  Q 231.18 222.37 230.82 220.90
  Q 230.53 219.72 231.38 220.58
  Q 231.91 221.11 231.72 221.97
  Q 231.54 222.81 232.31 222.44
  Z"
/>
<path fill="#ffffff" d="
  M 194.54 228.55
  Q 195.05 227.63 194.01 227.83
  C 191.08 228.38 188.97 226.01 190.72 223.55
  Q 192.08 221.66 194.86 222.65
  Q 195.48 222.87 195.44 223.53
  Q 195.29 225.52 195.42 227.51
  C 195.60 230.29 192.84 230.99 190.84 229.69
  Q 190.75 229.63 190.77 229.53
  L 190.84 229.21
  Q 190.92 228.88 191.21 229.04
  Q 193.58 230.30 194.54 228.55
  Z
  M 191.61 226.97
  L 193.64 227.22
  A 0.75 0.75 0.0 0 0 194.47 226.57
  L 194.62 225.41
  A 2.25 1.71 -83.0 0 0 193.19 222.97
  L 193.07 222.96
  A 2.25 1.71 -83.0 0 0 191.10 224.98
  L 190.96 226.13
  A 0.75 0.75 0.0 0 0 191.61 226.97
  Z"
/>
<path fill="#ffffff" d="
  M 197.93 226.36
  Q 197.91 226.50 197.96 226.62
  Q 198.09 226.93 198.39 227.06
  Q 199.80 227.65 201.19 226.65
  Q 201.50 226.42 201.70 226.75
  L 201.88 227.03
  Q 202.01 227.23 201.82 227.37
  C 200.02 228.66 197.05 228.37 196.90 225.72
  C 196.65 221.20 202.19 221.38 202.23 225.07
  Q 202.23 225.59 201.72 225.63
  L 198.44 225.88
  Q 197.99 225.91 197.93 226.36
  Z
  M 198.16 225.24
  L 200.93 224.93
  A 0.25 0.25 0.0 0 0 201.15 224.66
  L 201.13 224.50
  A 1.69 1.51 83.7 0 0 199.44 222.98
  L 199.19 223.01
  A 1.69 1.51 83.7 0 0 197.87 224.86
  L 197.89 225.02
  A 0.25 0.25 0.0 0 0 198.16 225.24
  Z"
/>
<path fill="#ffffff" d="
  M 204.17 222.88
  C 205.51 222.91 206.48 221.54 207.74 222.74
  C 208.83 223.78 208.58 226.12 208.62 227.61
  Q 208.63 227.87 208.36 227.88
  L 208.09 227.89
  Q 207.78 227.89 207.77 227.59
  L 207.73 224.12
  A 0.93 0.92 9.0 0 0 207.10 223.26
  C 204.49 222.37 204.34 225.94 204.47 227.57
  Q 204.49 227.78 204.29 227.82
  L 203.88 227.91
  Q 203.51 228.00 203.52 227.62
  L 203.61 223.43
  Q 203.62 222.88 204.17 222.88
  Z"
/>
<path fill="#ffffff" d="
  M 211.79 225.77
  Q 210.39 225.88 211.38 226.88
  Q 212.51 228.02 214.20 226.90
  Q 214.51 226.69 214.71 227.01
  L 214.86 227.26
  Q 214.96 227.42 214.80 227.51
  C 211.05 229.56 208.17 225.61 210.96 222.99
  C 212.56 221.49 215.20 222.63 215.30 224.87
  Q 215.33 225.48 214.72 225.53
  L 211.79 225.77
  Z
  M 211.26 225.30
  L 214.15 225.05
  A 0.24 0.24 0.0 0 0 214.37 224.79
  L 214.35 224.62
  A 1.71 1.55 84.9 0 0 212.66 223.05
  L 212.38 223.08
  A 1.71 1.55 84.9 0 0 210.98 224.92
  L 211.00 225.09
  A 0.24 0.24 0.0 0 0 211.26 225.30
  Z"
/>
<path fill="#ffffff" d="
  M 217.69 226.17
  Q 217.55 225.21 217.73 224.15
  Q 217.83 223.53 217.26 223.26
  L 216.62 222.96
  Q 216.09 222.71 216.58 222.39
  Q 216.79 222.25 217.01 222.33
  Q 218.64 223.01 220.37 222.51
  Q 220.78 222.38 221.21 222.48
  Q 221.51 222.55 221.60 222.79
  Q 221.82 223.34 221.23 223.22
  Q 221.07 223.19 220.91 223.16
  Q 220.47 223.10 220.05 223.26
  Q 218.10 224.01 218.49 226.46
  Q 218.57 226.99 219.10 227.12
  Q 219.32 227.17 219.45 227.39
  Q 219.78 227.95 219.14 227.91
  L 217.05 227.81
  Q 215.82 227.75 216.92 227.19
  L 217.25 227.02
  Q 217.78 226.75 217.69 226.17
  Z"
/>
<path fill="#ffffff" d="
  M 224.13 227.03
  Q 225.19 227.73 226.43 227.29
  Q 227.07 227.07 227.12 226.40
  Q 227.19 225.37 227.12 224.51
  Q 226.92 222.02 223.91 223.42
  Q 222.70 223.98 223.68 223.08
  Q 225.38 221.53 227.48 222.89
  Q 227.93 223.19 227.96 223.72
  L 228.14 227.06
  Q 228.17 227.58 227.68 227.74
  Q 225.61 228.43 223.91 227.86
  A 1.35 1.35 0.0 0 1 223.61 225.44
  Q 224.75 224.71 226.23 224.84
  Q 226.39 224.86 226.39 225.01
  L 226.39 225.26
  A 0.14 0.14 0.0 0 1 226.25 225.40
  Q 225.01 225.42 224.11 226.05
  A 0.59 0.59 0.0 0 0 224.13 227.03
  Z"
/>
<path fill="#ffffff" d="
  M 239.86 227.12
  Q 240.10 227.12 240.28 227.34
  Q 240.72 227.86 240.04 227.88
  L 237.97 227.96
  Q 237.18 227.99 237.66 227.37
  Q 239.32 225.23 237.65 223.01
  Q 236.98 222.13 238.03 222.48
  L 238.72 222.72
  Q 239.27 222.91 239.26 223.49
  L 239.22 226.49
  Q 239.21 227.14 239.86 227.12
  Z"
/>
<path fill="#ffffff" d="
  M 248.32 225.29
  A 2.91 2.91 0.0 0 1 245.41 228.20
  A 2.91 2.91 0.0 0 1 242.50 225.29
  A 2.91 2.91 0.0 0 1 245.41 222.38
  A 2.91 2.91 0.0 0 1 248.32 225.29
  Z
  M 245.2207 227.3662
  A 2.18 2.01 93.4 0 0 247.3565 225.3092
  A 2.18 2.01 93.4 0 0 245.4793 223.0138
  A 2.18 2.01 93.4 0 0 243.3435 225.0708
  A 2.18 2.01 93.4 0 0 245.2207 227.3662
  Z"
/>
<path fill="#ffffff" d="
  M 251.10 223.53
  Q 250.00 225.10 250.31 227.29
  A 0.56 0.56 0.0 0 1 249.71 227.93
  Q 249.01 227.88 249.09 227.44
  Q 249.48 225.30 249.33 222.81
  Q 249.31 222.44 249.61 222.66
  Q 250.59 223.39 251.49 222.45
  A 1.38 1.37 -47.1 0 1 253.39 222.37
  Q 254.37 223.25 254.10 224.11
  Q 253.83 224.96 253.45 224.15
  Q 253.08 223.38 252.35 223.13
  A 1.10 1.09 -62.4 0 0 251.10 223.53
  Z"
/>
<path fill="#3e3e3e" d="
  M 198.16 225.24
  A 0.25 0.25 0.0 0 1 197.89 225.02
  L 197.87 224.86
  A 1.69 1.51 83.7 0 1 199.19 223.01
  L 199.44 222.98
  A 1.69 1.51 83.7 0 1 201.13 224.50
  L 201.15 224.66
  A 0.25 0.25 0.0 0 1 200.93 224.93
  L 198.16 225.24
  Z"
/>
<path fill="#3e3e3e" d="
  M 191.61 226.97
  A 0.75 0.75 0.0 0 1 190.96 226.13
  L 191.10 224.98
  A 2.25 1.71 -83.0 0 1 193.07 222.96
  L 193.19 222.97
  A 2.25 1.71 -83.0 0 1 194.62 225.41
  L 194.47 226.57
  A 0.75 0.75 0.0 0 1 193.64 227.22
  L 191.61 226.97
  Z"
/>
<path fill="#3e3e3e" d="
  M 211.26 225.30
  A 0.24 0.24 0.0 0 1 211.00 225.09
  L 210.98 224.92
  A 1.71 1.55 84.9 0 1 212.38 223.08
  L 212.66 223.05
  A 1.71 1.55 84.9 0 1 214.35 224.62
  L 214.37 224.79
  A 0.24 0.24 0.0 0 1 214.15 225.05
  L 211.26 225.30
  Z"
/>
<ellipse fill="#3e3e3e" cx="0.00" cy="0.00" transform="translate(245.35,225.19) rotate(93.4)" rx="2.18" ry="2.01"/>
</svg>
